<svg width="40" height= "40" viewBox="0 0 40 40" fill="none" xmlns="http://www.w3.org/2000/svg">
<path fill-rule="evenodd" clip-rule="evenodd" d="M14.9088 13.0869C16.2591 11.7507 18.0904 11 20 11C21.9096 11 23.7409 11.7507 25.0912 13.0869C26.4414 14.4231 27.2 16.2353 27.2 18.125V21.1956C27.2 21.3531 27.2632 21.5041 27.3757 21.6155L28.4728 22.7011C28.8104 23.0351 29 23.4882 29 23.9606V24.6562C29 25.64 28.1941 26.4375 27.2 26.4375H12.8C11.8059 26.4375 11 25.64 11 24.6562V23.9606C11 23.4882 11.1896 23.0351 11.5272 22.7011L12.6243 21.6155C12.7368 21.5041 12.8 21.3531 12.8 21.1956V18.125C12.8 16.2353 13.5586 14.4231 14.9088 13.0869ZM20 12.1875C18.4087 12.1875 16.8826 12.8131 15.7574 13.9266C14.6321 15.0401 14 16.5503 14 18.125V21.1956C14 21.668 13.8104 22.1211 13.4728 22.4552L12.3757 23.5408C12.2632 23.6521 12.2 23.8032 12.2 23.9606V24.6562C12.2 24.9842 12.4686 25.25 12.8 25.25H27.2C27.5314 25.25 27.8 24.9842 27.8 24.6562V23.9606C27.8 23.8032 27.7368 23.6521 27.6243 23.5408L26.5272 22.4552C26.1896 22.1211 26 21.668 26 21.1956V18.125C26 16.5503 25.3679 15.0401 24.2426 13.9266C23.1174 12.8131 21.5913 12.1875 20 12.1875ZM18.8 27.625C18.8 27.9399 18.9264 28.242 19.1515 28.4647C19.3765 28.6874 19.6817 28.8125 20 28.8125C20.3183 28.8125 20.6235 28.6874 20.8485 28.4647C21.0736 28.242 21.2 27.9399 21.2 27.625H22.4C22.4 28.2549 22.1471 28.859 21.6971 29.3044C21.247 29.7498 20.6365 30 20 30C19.3635 30 18.753 29.7498 18.3029 29.3044C17.8529 28.859 17.6 28.2549 17.6 27.625H18.8Z" fill="white"/>
</svg>
