<svg width="11" height="12" viewBox="0 0 11 12" fill="none" xmlns="http://www.w3.org/2000/svg">
<path fill-rule="evenodd" clip-rule="evenodd" d="M2.38873 1.31802C3.21389 0.474105 4.33305 0 5.5 0C6.66695 0 7.78611 0.474106 8.61127 1.31802C9.43643 2.16193 9.9 3.30653 9.9 4.5V6.43934C9.9 6.5388 9.93863 6.63418 10.0074 6.7045L10.6778 7.39016C10.8841 7.60114 11 7.88729 11 8.18566V8.625C11 9.24632 10.5075 9.75 9.9 9.75H1.1C0.492487 9.75 0 9.24632 0 8.625V8.18566C0 7.88729 0.115892 7.60114 0.322183 7.39016L0.992606 6.7045C1.06137 6.63418 1.1 6.5388 1.1 6.43934V4.5C1.1 3.30652 1.56357 2.16193 2.38873 1.31802ZM5.5 0.75C4.52754 0.75 3.59491 1.14509 2.90728 1.84835C2.21964 2.55161 1.83333 3.50544 1.83333 4.5V6.43934C1.83333 6.73771 1.71744 7.02386 1.51115 7.23484L0.840727 7.9205C0.771964 7.99082 0.733333 8.0862 0.733333 8.18566V8.625C0.733333 8.83211 0.897496 9 1.1 9H9.9C10.1025 9 10.2667 8.83211 10.2667 8.625V8.18566C10.2667 8.0862 10.228 7.99082 10.1593 7.9205L9.48885 7.23484C9.28256 7.02386 9.16667 6.73771 9.16667 6.43934V4.5C9.16667 3.50544 8.78036 2.55161 8.09272 1.84835C7.40509 1.14509 6.47246 0.75 5.5 0.75ZM4.76667 10.5C4.76667 10.6989 4.84393 10.8897 4.98146 11.0303C5.11898 11.171 5.30551 11.25 5.5 11.25C5.69449 11.25 5.88102 11.171 6.01855 11.0303C6.15607 10.8897 6.23333 10.6989 6.23333 10.5H6.96667C6.96667 10.8978 6.81214 11.2794 6.53709 11.5607C6.26204 11.842 5.88898 12 5.5 12C5.11102 12 4.73796 11.842 4.46291 11.5607C4.18786 11.2794 4.03333 10.8978 4.03333 10.5H4.76667Z" fill="white"/>
</svg>
