<svg width="22" height="22" viewBox="0 0 22 22" fill="none" xmlns="http://www.w3.org/2000/svg">
<path fill-rule="evenodd" clip-rule="evenodd" d="M15.6276 4.125H6.37758V5.37305H15.6276V4.125ZM16.6276 5.37305V4.125C16.6276 3.57272 16.1799 3.125 15.6276 3.125H6.37758C5.82529 3.125 5.37758 3.57272 5.37758 4.125V5.37305H5.25117C5.22273 5.37305 5.19456 5.37423 5.16672 5.37656H2.56445C2.25379 5.37656 2.00195 5.6284 2.00195 5.93906C2.00195 6.24972 2.25379 6.50156 2.56445 6.50156H4.25117V17.873C4.25117 18.4253 4.69889 18.873 5.25117 18.873H16.7512C17.3035 18.873 17.7512 18.4253 17.7512 17.873V6.50156H19.4395C19.7501 6.50156 20.002 6.24972 20.002 5.93906C20.002 5.6284 19.7501 5.37656 19.4395 5.37656H16.8356C16.8078 5.37423 16.7796 5.37305 16.7512 5.37305H16.6276ZM5.25117 6.50156H16.7512V17.873H5.25117V6.50156ZM9.31422 14.375C9.00356 14.375 8.75172 14.1232 8.75172 13.8125V9.3125C8.75172 9.00184 9.00356 8.75 9.31422 8.75C9.62488 8.75 9.87672 9.00184 9.87672 9.3125V13.8125C9.87672 14.1232 9.62488 14.375 9.31422 14.375ZM12.1265 13.8125C12.1265 14.1232 12.3783 14.375 12.689 14.375C12.9996 14.375 13.2515 14.1232 13.2515 13.8125V9.3125C13.2515 9.00184 12.9996 8.75 12.689 8.75C12.3783 8.75 12.1265 9.00184 12.1265 9.3125V13.8125Z" fill="white"/>
</svg>
