<svg  width="22" height="22" viewBox="0 0 22 22" fill="none" xmlns="http://www.w3.org/2000/svg">
<path fill-rule="evenodd" clip-rule="evenodd" d="M20.0011 5.5C20.0011 3.567 18.4341 2 16.5011 2H15.5011V3H16.5011C17.8818 3 19.0011 4.11929 19.0011 5.5V16.5C19.0011 17.8807 17.8818 19 16.5011 19H15.5011V20H16.5011C18.4341 20 20.0011 18.433 20.0011 16.5V5.5ZM16.3891 16.0002V6.00019H15.3891V16.0002L16.3891 16.0002ZM7.14645 7.35182L10.2929 10.4983H1.5V11.4983H10.2929L7.14645 14.6447L7.85355 15.3518L12.2071 10.9983L7.85355 6.64472L7.14645 7.35182Z" fill="#878787"/>
</svg>
