<svg width="14" height="14" viewBox="0 0 14 14" fill="none" xmlns="http://www.w3.org/2000/svg">
<path d="M12.6875 10.8747C12.6875 11.1508 12.5735 11.3865 12.3455 11.5818C12.1175 11.7773 11.8426 11.875 11.5205 11.875L2.47947 11.875C2.15743 11.875 1.88245 11.7773 1.65454 11.5818C1.42651 11.3865 1.3125 11.1508 1.3125 10.8747L1.3125 3.12526C1.3125 2.84923 1.42651 2.61353 1.65454 2.41818C1.88245 2.22273 2.15743 2.125 2.47947 2.125L11.5205 2.125C11.8426 2.125 12.1175 2.22273 12.3455 2.41818C12.5735 2.61353 12.6875 2.84922 12.6875 3.12526L12.6875 10.8747ZM11.731 5.68136L11.731 2.9449L2.47947 2.9449C2.42682 2.9449 2.37862 2.9637 2.33486 3.00131C2.29099 3.03882 2.26905 3.08013 2.26905 3.12526L2.26905 5.68136L11.731 5.68136ZM11.731 6.50126L2.26905 6.50126L2.26905 10.8747C2.26905 10.9199 2.29099 10.9612 2.33486 10.9987C2.37862 11.0363 2.42682 11.0551 2.47947 11.0551L11.5205 11.0551C11.5732 11.0551 11.6214 11.0363 11.6651 10.9987C11.709 10.9612 11.731 10.9199 11.731 10.8747L11.731 6.50126Z" fill="#E8EAED"/>
<rect x="2.9375" y="3.75" width="0.8125" height="0.8125" fill="white"/>
<rect x="4.5625" y="3.75" width="0.8125" height="0.8125" fill="white"/>
</svg>
