<svg width="12" height="12" viewBox="0 0 12 12" fill="none" xmlns="http://www.w3.org/2000/svg">
<circle cx="6" cy="6" r="5" stroke="#E8EAED"/>
<path d="M5.6037 5.30309H6.3963V8.5H5.6037V5.30309ZM5.9963 4.58185C5.90741 4.58185 5.82469 4.55753 5.74815 4.50887C5.67407 4.46022 5.61358 4.39439 5.56667 4.31139C5.52222 4.22839 5.5 4.13824 5.5 4.04093C5.5 3.94362 5.52222 3.85346 5.56667 3.77046C5.61358 3.68746 5.67531 3.62164 5.75185 3.57298C5.83086 3.52433 5.91481 3.5 6.0037 3.5C6.09259 3.5 6.17531 3.52433 6.25185 3.57298C6.3284 3.62164 6.38889 3.68746 6.43333 3.77046C6.47778 3.85346 6.5 3.94362 6.5 4.04093C6.5 4.1411 6.47654 4.23268 6.42963 4.31568C6.38519 4.39868 6.32469 4.46451 6.24815 4.51317C6.1716 4.55896 6.08765 4.58185 5.9963 4.58185Z" fill="#E8EAED"/>
</svg>
