<svg width="12" height="12" viewBox="0 0 12 12" fill="none" xmlns="http://www.w3.org/2000/svg">
<path d="M5.38171 6.61829H0.618291C0.443156 6.61829 0.296284 6.55946 0.177675 6.44181C0.0592249 6.32415 0 6.1768 0 5.99976C0 5.82288 0.0592249 5.67561 0.177675 5.55795C0.296284 5.44046 0.443156 5.38171 0.618291 5.38171H5.38171V0.618291C5.38171 0.443156 5.44117 0.296284 5.5601 0.177675C5.67902 0.0592242 5.82629 0 6.0019 0C6.17768 0 6.32439 0.0592242 6.44204 0.177675C6.55954 0.296284 6.61829 0.443156 6.61829 0.618291V5.38171H11.3817C11.5568 5.38171 11.7037 5.44117 11.8223 5.5601C11.9408 5.67902 12 5.82645 12 6.00238C12 6.18101 11.9408 6.32828 11.8223 6.44419C11.7037 6.56026 11.5568 6.61829 11.3817 6.61829H6.61829V11.3817C6.61829 11.5595 6.55883 11.707 6.4399 11.8242C6.32098 11.9414 6.17371 12 5.9981 12C5.82232 12 5.67561 11.9414 5.55795 11.8242C5.44046 11.707 5.38171 11.5595 5.38171 11.3817V6.61829Z" fill="white"/>
</svg>
