<svg width="12" height="13" viewBox="0 0 12 13" fill="none" xmlns="http://www.w3.org/2000/svg">
<path fill-rule="evenodd" clip-rule="evenodd" d="M6.10404 0.357143C6.10404 0.159898 5.94898 0 5.75772 0C5.56645 0 5.4114 0.159898 5.4114 0.357143V8.41992L2.64976 5.97884C2.50454 5.85047 2.28591 5.86782 2.16144 6.01757C2.03696 6.16733 2.05378 6.3928 2.199 6.52116L5.53233 9.46759C5.66203 9.58223 5.8534 9.58223 5.9831 9.46759L9.31643 6.52116C9.46165 6.3928 9.47847 6.16733 9.354 6.01757C9.22952 5.86782 9.01089 5.85047 8.86567 5.97884L6.10404 8.41992V0.357143ZM0.692641 8.92941C0.692641 8.73216 0.537588 8.57227 0.34632 8.57227C0.155053 8.57227 0 8.73216 0 8.92941V11.4294C0 12.0211 0.465159 12.5008 1.03896 12.5008H10.3896C10.9634 12.5008 11.4286 12.0211 11.4286 11.4294V8.92941C11.4286 8.73216 11.2735 8.57227 11.0823 8.57227C10.891 8.57227 10.7359 8.73216 10.7359 8.92941V11.4294C10.7359 11.6267 10.5809 11.7866 10.3896 11.7866H1.03896C0.847694 11.7866 0.692641 11.6267 0.692641 11.4294V8.92941Z" fill="white"/>
</svg>
