<svg width="15" height="15" viewBox="0 0 15 15" fill="none" xmlns="http://www.w3.org/2000/svg">
<path d="M11.875 6.25H12.5C12.8452 6.25 13.125 6.52981 13.125 6.875V13.125C13.125 13.4702 12.8452 13.75 12.5 13.75H2.5C2.15483 13.75 1.875 13.4702 1.875 13.125V6.875C1.875 6.52981 2.15483 6.25 2.5 6.25H3.125V5.625C3.125 3.20876 5.08376 1.25 7.5 1.25C9.91625 1.25 11.875 3.20876 11.875 5.625V6.25ZM10.625 6.25V5.625C10.625 3.89911 9.22587 2.5 7.5 2.5C5.77411 2.5 4.375 3.89911 4.375 5.625V6.25H10.625ZM6.875 8.75V11.25H8.125V8.75H6.875Z" fill="white"/>
</svg>
