<svg width="24" height="24" viewBox="0 0 24 24" fill="none" xmlns="http://www.w3.org/2000/svg">
<mask id="mask0_1_34362" style="mask-type:alpha" maskUnits="userSpaceOnUse" x="0" y="0" width="24" height="24">
<rect width="24" height="24" fill="#D9D9D9"/>
</mask>
<g mask="url(#mask0_1_34362)">
<path d="M15.7229 3.38628L20.5456 8.07504C20.8361 8.35746 21 8.74538 21 9.15053V19.5C21 20.3284 20.3284 21 19.5 21H4.5C3.67157 21 3 20.3284 3 19.5V4.5C3 3.67157 3.67157 3 4.5 3H14.7714C15.1268 3 15.4681 3.13858 15.7229 3.38628Z" stroke="#0BA7FE"/>
<path d="M16.5 21H17V20.5V16.5C17 15.6716 16.3284 15 15.5 15H8.5C7.67157 15 7 15.6716 7 16.5V20.5V21H7.5H16.5Z" stroke="#0BA7FE"/>
</g>
</svg>
