<svg width="16" height="16" viewBox="0 0 16 16" fill="none" xmlns="http://www.w3.org/2000/svg">
<mask id="mask0_1_33736" style="mask-type:alpha" maskUnits="userSpaceOnUse" x="0" y="-1" width="16" height="17">
<path fill-rule="evenodd" clip-rule="evenodd" d="M6.94005 0.999023C10.2206 0.999023 12.8801 3.65848 12.8801 6.93909C12.8801 10.2197 10.2206 12.8792 6.94005 12.8792C3.65945 12.8792 1 10.2197 1 6.93909C1 3.65848 3.65945 0.999023 6.94005 0.999023ZM6.94005 -0.000976562C10.7729 -0.000976562 13.8801 3.1062 13.8801 6.93909C13.8801 10.772 10.7729 13.8792 6.94005 13.8792C3.10717 13.8792 0 10.772 0 6.93909C0 3.1062 3.10717 -0.000976562 6.94005 -0.000976562ZM12.6031 12.6032C12.3946 12.8117 12.3946 13.1497 12.6031 13.3582L14.868 15.6231C15.0765 15.8316 15.4145 15.8316 15.623 15.6231C15.8315 15.4147 15.8315 15.0767 15.623 14.8682L13.3581 12.6032C13.1496 12.3947 12.8116 12.3947 12.6031 12.6032Z" fill="white"/>
</mask>
<g mask="url(#mask0_1_33736)">
<rect x="-2" y="-2" width="20" height="20" fill="#1BACFF"/>
</g>
</svg>
