<svg width="14" height="3" viewBox="0 0 14 3" fill="none" xmlns="http://www.w3.org/2000/svg">
<path d="M7.01367 1.90323C7.28981 1.90323 7.51367 1.70103 7.51367 1.45161C7.51367 1.20219 7.28981 1 7.01367 1C6.73753 1 6.51367 1.20219 6.51367 1.45161C6.51367 1.70103 6.73753 1.90323 7.01367 1.90323Z" fill="white" stroke="white" stroke-linecap="round" stroke-linejoin="round"/>
<path d="M12.7266 1.90323C13.0027 1.90323 13.2266 1.70103 13.2266 1.45161C13.2266 1.20219 13.0027 1 12.7266 1C12.4504 1 12.2266 1.20219 12.2266 1.45161C12.2266 1.70103 12.4504 1.90323 12.7266 1.90323Z" fill="white" stroke="white" stroke-linecap="round" stroke-linejoin="round"/>
<path d="M1.30078 1.90323C1.57692 1.90323 1.80078 1.70103 1.80078 1.45161C1.80078 1.20219 1.57692 1 1.30078 1C1.02464 1 0.800781 1.20219 0.800781 1.45161C0.800781 1.70103 1.02464 1.90323 1.30078 1.90323Z" fill="white" stroke="white" stroke-linecap="round" stroke-linejoin="round"/>
</svg>
