<svg width="17" height="17" viewBox="0 0 17 17" fill="none" xmlns="http://www.w3.org/2000/svg">
<path d="M3.19297 2.03649C3.23728 1.68202 3.53861 1.41602 3.89583 1.41602H13.1042C13.4614 1.41602 13.7627 1.68202 13.807 2.03649L14.8695 10.5365C14.8732 10.5656 14.875 10.595 14.875 10.6243V14.8743C14.875 15.2656 14.5579 15.5827 14.1667 15.5827H2.83333C2.44213 15.5827 2.125 15.2656 2.125 14.8743V10.6243C2.125 10.595 2.12683 10.5656 2.13047 10.5365L3.19297 2.03649ZM4.52114 2.83268L3.63572 9.91601H13.3643L12.4789 2.83268H4.52114ZM13.4583 11.3327H3.54167V14.166H13.4583V11.3327ZM10.625 12.041H12.0417V13.4577H10.625V12.041ZM9.20833 12.041H7.79167V13.4577H9.20833V12.041Z" fill="#6F6F6F"/>
</svg>
