<svg width="17" height="17" viewBox="0 0 17 17" fill="none" xmlns="http://www.w3.org/2000/svg">
<path d="M8.49935 15.5827C4.58733 15.5827 1.41602 12.4113 1.41602 8.49935C1.41602 4.58733 4.58733 1.41602 8.49935 1.41602C12.4113 1.41602 15.5827 4.58733 15.5827 8.49935C15.5827 12.4113 12.4113 15.5827 8.49935 15.5827ZM8.49935 14.166C11.629 14.166 14.166 11.629 14.166 8.49935C14.166 5.36973 11.629 2.83268 8.49935 2.83268C5.36973 2.83268 2.83268 5.36973 2.83268 8.49935C2.83268 11.629 5.36973 14.166 8.49935 14.166ZM7.79102 4.95768H9.20768V6.37435H7.79102V4.95768ZM7.79102 7.79102H9.20768V12.041H7.79102V7.79102Z" fill="#6F6F6F"/>
</svg>
