<svg width="32" height="32" viewBox="0 0 32 32" fill="none" xmlns="http://www.w3.org/2000/svg">
<path d="M6.23315 21.1033H24.9338C25.2369 21.1033 25.4858 21.0059 25.6806 20.8111C25.8754 20.6163 25.9728 20.3674 25.9728 20.0644V13.701H5.19422V20.0644C5.19422 20.3674 5.29162 20.6163 5.48642 20.8111C5.68122 21.0059 5.93012 21.1033 6.23315 21.1033ZM22.2677 18.506C22.5733 18.506 22.8343 18.3991 23.0508 18.1852C23.2672 17.9714 23.3754 17.7117 23.3754 17.4061C23.3754 17.1004 23.2685 16.8394 23.0547 16.623C22.8408 16.4065 22.5811 16.2983 22.2755 16.2983C21.9699 16.2983 21.7088 16.4052 21.4924 16.6191C21.2759 16.8329 21.1677 17.0926 21.1677 17.3983C21.1677 17.7039 21.2747 17.9649 21.4885 18.1814C21.7023 18.3978 21.9621 18.506 22.2677 18.506ZM26.8818 12.7919H25.6156L22.3041 9.35047H8.86293L5.55135 12.7919H4.28516L7.9214 9.0258C8.09456 8.831 8.30321 8.6849 8.54736 8.58751C8.7915 8.49011 9.04821 8.44141 9.31746 8.44141H21.8495C22.1188 8.44141 22.3755 8.49011 22.6196 8.58751C22.8638 8.6849 23.0724 8.831 23.2456 9.0258L26.8818 12.7919ZM6.23315 22.0124C5.69745 22.0124 5.23891 21.8216 4.85754 21.44C4.47595 21.0586 4.28516 20.6001 4.28516 20.0644V12.7919H26.8818V20.0644C26.8818 20.6001 26.6911 21.0586 26.3098 21.44C25.9282 21.8216 25.4695 22.0124 24.9338 22.0124H6.23315Z" fill="#868686"/>
<circle cx="22.347" cy="17.3997" r="1.12432" fill="#B4B4B4"/>
<circle cx="22.347" cy="17.3997" r="1.12432" fill="#B4B4B4"/>
<circle cx="18.3001" cy="17.3997" r="1.12432" fill="#B4B4B4"/>
<circle cx="18.3001" cy="17.3997" r="1.12432" fill="#B4B4B4"/>
</svg>
