<svg width="13" height="13" viewBox="0 0 13 13" fill="none" xmlns="http://www.w3.org/2000/svg">
<mask id="mask0_1_88909" style="mask-type:alpha" maskUnits="userSpaceOnUse" x="0" y="0" width="13" height="13">
<rect width="13" height="13" fill="#D9D9D9"/>
</mask>
<g mask="url(#mask0_1_88909)">
<mask id="path-2-inside-1_1_88909" fill="white">
<path fill-rule="evenodd" clip-rule="evenodd" d="M9.22692 5.86328H11.4996L11.4996 11.4996L5.86328 11.4996L5.86328 9.22692H4.86328V11.4996C4.86328 12.0519 5.311 12.4996 5.86328 12.4996H11.4996C12.0519 12.4996 12.4996 12.0519 12.4996 11.4996V5.86328C12.4996 5.311 12.0519 4.86328 11.4996 4.86328H9.22692V5.86328Z"/>
</mask>
<path fill-rule="evenodd" clip-rule="evenodd" d="M9.22692 5.86328H11.4996L11.4996 11.4996L5.86328 11.4996L5.86328 9.22692H4.86328V11.4996C4.86328 12.0519 5.311 12.4996 5.86328 12.4996H11.4996C12.0519 12.4996 12.4996 12.0519 12.4996 11.4996V5.86328C12.4996 5.311 12.0519 4.86328 11.4996 4.86328H9.22692V5.86328Z" fill="#D9D9D9"/>
<path d="M11.4996 5.86328L12.4996 5.86328V4.86328H11.4996V5.86328ZM9.22692 5.86328H8.22692V6.86328H9.22692V5.86328ZM11.4996 11.4996V12.4996H12.4996V11.4996H11.4996ZM5.86328 11.4996H4.86328L4.86328 12.4996H5.86328L5.86328 11.4996ZM5.86328 9.22692H6.86328L6.86328 8.22692H5.86328V9.22692ZM4.86328 9.22692V8.22692H3.86328V9.22692H4.86328ZM9.22692 4.86328V3.86328H8.22692V4.86328H9.22692ZM11.4996 4.86328H9.22692V6.86328H11.4996V4.86328ZM12.4996 11.4996L12.4996 5.86328L10.4996 5.86328L10.4996 11.4996H12.4996ZM5.86328 12.4996L11.4996 12.4996V10.4996L5.86328 10.4996L5.86328 12.4996ZM4.86328 9.22692L4.86328 11.4996H6.86328L6.86328 9.22692H4.86328ZM4.86328 10.2269H5.86328V8.22692H4.86328V10.2269ZM5.86328 11.4996V9.22692H3.86328V11.4996H5.86328ZM3.86328 11.4996C3.86328 12.6042 4.75871 13.4996 5.86328 13.4996V11.4996H5.86328H3.86328ZM11.4996 11.4996H5.86328V13.4996H11.4996V11.4996ZM11.4996 13.4996C12.6042 13.4996 13.4996 12.6042 13.4996 11.4996H11.4996V11.4996V13.4996ZM11.4996 5.86328V11.4996H13.4996V5.86328H11.4996ZM13.4996 5.86328C13.4996 4.75871 12.6042 3.86328 11.4996 3.86328V5.86328H11.4996H13.4996ZM9.22692 5.86328H11.4996V3.86328H9.22692V5.86328ZM10.2269 5.86328V4.86328H8.22692V5.86328H10.2269Z" fill="white" mask="url(#path-2-inside-1_1_88909)"/>
<rect x="1" y="1" width="6.63636" height="6.63636" rx="0.5" fill="white" stroke="white"/>
</g>
</svg>
