<svg width="13" height="13" viewBox="0 0 13 13" fill="none" xmlns="http://www.w3.org/2000/svg">
<mask id="mask0_1_88932" style="mask-type:alpha" maskUnits="userSpaceOnUse" x="0" y="0" width="13" height="13">
<rect width="13" height="13" fill="#D9D9D9"/>
</mask>
<g mask="url(#mask0_1_88932)">
<mask id="path-2-inside-1_1_88932" fill="white">
<path fill-rule="evenodd" clip-rule="evenodd" d="M1.5 0.5C0.947715 0.5 0.5 0.947715 0.5 1.5V7.13636C0.5 7.68865 0.947715 8.13636 1.5 8.13636H4.86363V11.4996C4.86363 12.0519 5.31135 12.4996 5.86363 12.4996H11.5C12.0523 12.4996 12.5 12.0519 12.5 11.4996V5.86328C12.5 5.311 12.0523 4.86328 11.5 4.86328H8.13636V1.5C8.13636 0.947715 7.68865 0.5 7.13636 0.5H1.5ZM8.13636 5.86328V4.86328H5.86363C5.31135 4.86328 4.86363 5.311 4.86363 5.86328V8.13636H5.86363L5.86363 11.4996H11.5V5.86328H8.13636ZM8.13636 5.86328V7.13636C8.13636 7.68865 7.68865 8.13636 7.13636 8.13636H5.86363V5.86328H8.13636Z"/>
</mask>
<path fill-rule="evenodd" clip-rule="evenodd" d="M1.5 0.5C0.947715 0.5 0.5 0.947715 0.5 1.5V7.13636C0.5 7.68865 0.947715 8.13636 1.5 8.13636H4.86363V11.4996C4.86363 12.0519 5.31135 12.4996 5.86363 12.4996H11.5C12.0523 12.4996 12.5 12.0519 12.5 11.4996V5.86328C12.5 5.311 12.0523 4.86328 11.5 4.86328H8.13636V1.5C8.13636 0.947715 7.68865 0.5 7.13636 0.5H1.5ZM8.13636 5.86328V4.86328H5.86363C5.31135 4.86328 4.86363 5.311 4.86363 5.86328V8.13636H5.86363L5.86363 11.4996H11.5V5.86328H8.13636ZM8.13636 5.86328V7.13636C8.13636 7.68865 7.68865 8.13636 7.13636 8.13636H5.86363V5.86328H8.13636Z" fill="white"/>
<path d="M5.86363 11.4996H4.86363V12.4996H5.86363V11.4996ZM11.5 11.4996V12.4996H12.5V11.4996H11.5ZM11.5 5.86328H12.5V4.86328H11.5V5.86328ZM5.86363 5.86328V4.86328H4.86363V5.86328H5.86363ZM1.5 1.5V1.5V-0.5C0.395431 -0.5 -0.5 0.395429 -0.5 1.5H1.5ZM1.5 7.13636V1.5H-0.5V7.13636H1.5ZM1.5 7.13636H1.5H-0.5C-0.5 8.24093 0.395429 9.13636 1.5 9.13636V7.13636ZM4.86363 7.13636H1.5V9.13636H4.86363V7.13636ZM3.86363 8.13636V11.4996H5.86363V8.13636H3.86363ZM3.86363 11.4996C3.86363 12.6042 4.75906 13.4996 5.86363 13.4996V11.4996H5.86363H3.86363ZM5.86363 13.4996H11.5V11.4996H5.86363V13.4996ZM11.5 13.4996C12.6046 13.4996 13.5 12.6042 13.5 11.4996H11.5V13.4996ZM13.5 11.4996V5.86328H11.5V11.4996H13.5ZM13.5 5.86328C13.5 4.75871 12.6046 3.86328 11.5 3.86328V5.86328H13.5ZM11.5 3.86328H8.13636V5.86328H11.5V3.86328ZM7.13636 1.5V4.86328H9.13636V1.5H7.13636ZM7.13636 1.5H7.13636H9.13636C9.13636 0.395431 8.24093 -0.5 7.13636 -0.5V1.5ZM1.5 1.5H7.13636V-0.5H1.5V1.5ZM7.13636 4.86328V5.86328H9.13636V4.86328H7.13636ZM8.13636 3.86328H5.86363V5.86328H8.13636V3.86328ZM5.86363 3.86328C4.75906 3.86328 3.86363 4.75871 3.86363 5.86328H5.86363V5.86328V3.86328ZM3.86363 5.86328V8.13636H5.86363V5.86328H3.86363ZM5.86363 7.13636H4.86363V9.13636H5.86363V7.13636ZM4.86363 8.13636L4.86363 11.4996H6.86363L6.86363 8.13636H4.86363ZM5.86363 12.4996H11.5V10.4996H5.86363V12.4996ZM12.5 11.4996V5.86328H10.5V11.4996H12.5ZM11.5 4.86328H8.13636V6.86328H11.5V4.86328ZM7.13636 5.86328V7.13636H9.13636V5.86328H7.13636ZM7.13636 7.13636V7.13636V9.13636C8.24093 9.13636 9.13636 8.24093 9.13636 7.13636H7.13636ZM7.13636 7.13636H5.86363V9.13636H7.13636V7.13636ZM4.86363 5.86328V8.13636H6.86363V5.86328H4.86363ZM8.13636 4.86328H5.86363V6.86328H8.13636V4.86328Z" fill="white" mask="url(#path-2-inside-1_1_88932)"/>
</g>
</svg>
