<svg width="16" height="16" viewBox="0 0 16 16" fill="none" xmlns="http://www.w3.org/2000/svg">
<path d="M9 6C9 5.80222 9.05865 5.60888 9.16853 5.44443C9.27841 5.27998 9.43459 5.15181 9.61732 5.07612C9.80004 5.00043 10.0011 4.98063 10.1951 5.01921C10.3891 5.0578 10.5673 5.15304 10.7071 5.29289C10.847 5.43275 10.9422 5.61093 10.9808 5.80491C11.0194 5.99889 10.9996 6.19996 10.9239 6.38268C10.8482 6.56541 10.72 6.72159 10.5556 6.83147C10.3911 6.94135 10.1978 7 10 7C9.73478 7 9.48043 6.89464 9.29289 6.70711C9.10536 6.51957 9 6.26522 9 6ZM14.75 3.5V12.5C14.75 12.8315 14.6183 13.1495 14.3839 13.3839C14.1495 13.6183 13.8315 13.75 13.5 13.75H2.5C2.16848 13.75 1.85054 13.6183 1.61612 13.3839C1.3817 13.1495 1.25 12.8315 1.25 12.5V3.5C1.25 3.16848 1.3817 2.85054 1.61612 2.61612C1.85054 2.3817 2.16848 2.25 2.5 2.25H13.5C13.8315 2.25 14.1495 2.3817 14.3839 2.61612C14.6183 2.85054 14.75 3.16848 14.75 3.5ZM2.75 3.75V8.7325L4.86625 6.61625C5.10066 6.38191 5.41854 6.25027 5.75 6.25027C6.08146 6.25027 6.39934 6.38191 6.63375 6.61625L9.20687 9.1875L10.2806 8.11438C10.515 7.88004 10.8329 7.74839 11.1644 7.74839C11.4958 7.74839 11.8137 7.88004 12.0481 8.11438L13.25 9.31812V3.75H2.75ZM2.75 12.25H10.1462L5.75 7.85375L2.75 10.8538V12.25ZM13.25 12.25V11.4375L11.1644 9.35188L10.2675 10.25L12.2675 12.25H13.25Z" fill="#6F6F72"/>
</svg>
