<svg width="16" height="16" viewBox="0 0 16 16" fill="none" xmlns="http://www.w3.org/2000/svg">
<path d="M9.91464 6.08343L9.91462 6.08341C8.98468 5.15358 7.89799 4.42123 6.6566 3.88643C5.51157 3.39314 4.29441 3.12705 3.00707 3.08727C2.67699 3.07708 2.41602 3.34527 2.41602 3.66536C2.41602 3.98965 2.67768 4.24366 2.99103 4.25407C4.12575 4.29176 5.19488 4.52786 6.20033 4.96158C7.30563 5.43838 8.2679 6.08746 9.08924 6.90881C9.91058 7.73015 10.5597 8.69242 11.0365 9.79772C11.4702 10.8032 11.7063 11.8723 11.744 13.007C11.7544 13.3204 12.0084 13.582 12.3327 13.582C12.6528 13.582 12.921 13.3211 12.9108 12.991C12.871 11.7036 12.6049 10.4865 12.1116 9.34145C11.5768 8.10006 10.8445 7.01337 9.91464 6.08343Z" fill="#6F6F72" stroke="#6F6F72" stroke-width="0.5"/>
</svg>
