<svg width="16" height="16" viewBox="0 0 16 16" fill="none" xmlns="http://www.w3.org/2000/svg">
<path d="M14.7506 7C14.7494 8.12681 14.3013 9.20715 13.5045 10.0039C12.7077 10.8007 11.6274 11.2488 10.5006 11.25H3.81309L5.53309 12.9694C5.60286 13.0391 5.6582 13.122 5.69595 13.2131C5.73371 13.3043 5.75314 13.402 5.75314 13.5006C5.75314 13.5993 5.73371 13.697 5.69595 13.7881C5.6582 13.8793 5.60286 13.9621 5.53309 14.0319C5.46333 14.1016 5.3805 14.157 5.28935 14.1947C5.1982 14.2325 5.1005 14.2519 5.00184 14.2519C4.90318 14.2519 4.80548 14.2325 4.71433 14.1947C4.62318 14.157 4.54036 14.1016 4.47059 14.0319L1.47059 11.0319C1.40067 10.9622 1.34519 10.8794 1.30734 10.7882C1.26949 10.6971 1.25 10.5993 1.25 10.5006C1.25 10.4019 1.26949 10.3042 1.30734 10.213C1.34519 10.1218 1.40067 10.0391 1.47059 9.96937L4.47059 6.96938C4.54036 6.89961 4.62318 6.84427 4.71433 6.80651C4.80548 6.76876 4.90318 6.74932 5.00184 6.74932C5.1005 6.74932 5.1982 6.76876 5.28935 6.80651C5.3805 6.84427 5.46333 6.89961 5.53309 6.96938C5.60286 7.03914 5.6582 7.12196 5.69595 7.21311C5.73371 7.30427 5.75314 7.40196 5.75314 7.50063C5.75314 7.59929 5.73371 7.69698 5.69595 7.78814C5.6582 7.87929 5.60286 7.96211 5.53309 8.03187L3.81309 9.75H10.5006C11.2299 9.75 11.9294 9.46027 12.4451 8.94454C12.9609 8.42882 13.2506 7.72935 13.2506 7C13.2506 6.27065 12.9609 5.57118 12.4451 5.05546C11.9294 4.53973 11.2299 4.25 10.5006 4.25H5.00059C4.80168 4.25 4.61091 4.17098 4.47026 4.03033C4.32961 3.88968 4.25059 3.69891 4.25059 3.5C4.25059 3.30109 4.32961 3.11032 4.47026 2.96967C4.61091 2.82902 4.80168 2.75 5.00059 2.75H10.5006C11.6274 2.75116 12.7077 3.1993 13.5045 3.99608C14.3013 4.79285 14.7494 5.87319 14.7506 7Z" fill="white"/>
</svg>
