<svg width="16" height="16" viewBox="0 0 16 16" fill="none" xmlns="http://www.w3.org/2000/svg">
<path d="M14.0088 11.1995L11.0819 8.27322L13.4525 7.42885L13.5 7.4101C13.7308 7.30815 13.9254 7.13873 14.0581 6.92412C14.1908 6.70951 14.2555 6.45975 14.2436 6.2077C14.2317 5.95565 14.1438 5.7131 13.9914 5.51195C13.8391 5.3108 13.6294 5.16047 13.39 5.08072L3.3844 1.81385C3.16557 1.74353 2.9316 1.7349 2.70819 1.78892C2.48478 1.84293 2.28059 1.9575 2.11807 2.12002C1.95555 2.28255 1.84098 2.48674 1.78696 2.71014C1.73295 2.93355 1.74157 3.16753 1.8119 3.38635L5.07877 13.3913C5.15851 13.6308 5.30884 13.8404 5.50999 13.9928C5.71114 14.1451 5.95369 14.233 6.20575 14.2449C6.4578 14.2568 6.70755 14.1922 6.92217 14.0595C7.13678 13.9267 7.3062 13.7322 7.40815 13.5013C7.41502 13.4857 7.42127 13.4701 7.4269 13.4538L8.27127 11.0838L11.1981 14.0101C11.4326 14.2444 11.7504 14.3761 12.0819 14.3761C12.4134 14.3761 12.7312 14.2444 12.9656 14.0101L14.0088 12.9676C14.1249 12.8515 14.217 12.7137 14.2799 12.562C14.3427 12.4103 14.3751 12.2477 14.3751 12.0835C14.3751 11.9193 14.3427 11.7568 14.2799 11.6051C14.217 11.4534 14.1249 11.3156 14.0088 11.1995ZM12.0819 12.7726L9.0519 9.7426C8.81753 9.50816 8.49964 9.37642 8.16815 9.37635C8.08973 9.37653 8.01149 9.38385 7.9344 9.39822C7.73441 9.43608 7.5467 9.52219 7.38757 9.64909C7.22843 9.77598 7.10269 9.93981 7.02127 10.1263C7.0144 10.142 7.00815 10.1576 7.00252 10.1738L6.2744 12.2201L3.39252 3.39447L12.2181 6.27572L10.1738 7.00447C10.1575 7.0101 10.1419 7.01635 10.1263 7.02322C9.93947 7.10445 9.77536 7.23009 9.6482 7.38922C9.52105 7.54835 9.4347 7.73614 9.39669 7.93626C9.35868 8.13637 9.37014 8.34274 9.43009 8.53741C9.49003 8.73209 9.59665 8.90916 9.74065 9.05322L12.7713 12.0832L12.0819 12.7726Z" fill="#707072"/>
</svg>
