<svg width="24" height="24" viewBox="0 0 24 24" fill="none" xmlns="http://www.w3.org/2000/svg">
<path d="M17 12.001C17.0001 13.3153 16.5209 14.5767 15.666 15.5123C14.8112 16.4479 13.6495 16.9824 12.4324 17H12.3704C11.1885 17.0027 10.0509 16.5142 9.19352 15.6358C9.08639 15.5265 9.02384 15.3758 9.01963 15.2167C9.01542 15.0577 9.06989 14.9034 9.17106 14.7877C9.27224 14.672 9.41183 14.6045 9.55912 14.5999C9.70642 14.5954 9.84935 14.6542 9.95648 14.7634C10.4594 15.2761 11.091 15.6173 11.7725 15.7446C12.454 15.8718 13.1551 15.7793 13.7882 15.4787C14.4213 15.1781 14.9583 14.6827 15.3321 14.0544C15.706 13.4261 15.9 12.6928 15.8901 11.9461C15.8801 11.1994 15.6666 10.4724 15.2761 9.85604C14.8857 9.23964 14.3357 8.76115 13.6948 8.48037C13.054 8.19958 12.3507 8.12895 11.6729 8.27731C10.9951 8.42566 10.3728 8.78642 9.8838 9.3145C9.87778 9.321 9.87222 9.327 9.86574 9.333L8.98565 10.2013H9.77778C9.92512 10.2013 10.0664 10.2645 10.1706 10.377C10.2748 10.4895 10.3333 10.6421 10.3333 10.8012C10.3333 10.9603 10.2748 11.1129 10.1706 11.2254C10.0664 11.3379 9.92512 11.4011 9.77778 11.4011H7.55556C7.40821 11.4011 7.26691 11.3379 7.16272 11.2254C7.05853 11.1129 7 10.9603 7 10.8012V8.40168C7 8.24259 7.05853 8.09 7.16272 7.9775C7.26691 7.865 7.40821 7.8018 7.55556 7.8018C7.7029 7.8018 7.84421 7.865 7.94839 7.9775C8.05258 8.09 8.11111 8.24259 8.11111 8.40168V9.43748L9.10556 8.45467C9.75412 7.75813 10.5792 7.28465 11.4768 7.094C12.3743 6.90336 13.3041 7.00409 14.1486 7.38349C14.9932 7.76288 15.7148 8.40393 16.2223 9.22573C16.7297 10.0475 17.0004 11.0132 17 12.001Z" fill="#6F6F72"/>
<circle cx="12" cy="12" r="10.4" stroke="#707072" stroke-width="1.2"/>
</svg>
