<svg width="16" height="16" viewBox="0 0 16 16" fill="none" xmlns="http://www.w3.org/2000/svg">
<path d="M5.67857 3.18094C5.61801 3.05209 5.52202 2.94315 5.40182 2.86684C5.28163 2.79052 5.1422 2.75 4.99982 2.75C4.85745 2.75 4.71802 2.79052 4.59783 2.86684C4.47763 2.94315 4.38164 3.05209 4.32107 3.18094L0.321074 11.6809C0.241 11.8602 0.23441 12.0637 0.302719 12.2478C0.371028 12.4318 0.508789 12.5818 0.686421 12.6654C0.864054 12.749 1.06739 12.7597 1.25278 12.695C1.43817 12.6304 1.59081 12.4956 1.67795 12.3197L2.65232 10.2503H7.34732L8.32107 12.3197C8.40578 12.4997 8.55852 12.6387 8.74571 12.7061C8.93289 12.7735 9.13918 12.7638 9.3192 12.6791C9.49921 12.5944 9.63821 12.4416 9.7056 12.2544C9.773 12.0672 9.76328 11.861 9.67857 11.6809L5.67857 3.18094ZM3.35857 8.75032L4.99982 5.26157L6.6417 8.75032H3.35857ZM12.4998 5.25032C11.6342 5.25032 10.9517 5.49157 10.4717 5.96782C10.3962 6.03582 10.3353 6.11844 10.2928 6.21068C10.2502 6.30292 10.2268 6.40285 10.224 6.5044C10.2212 6.60596 10.239 6.70702 10.2765 6.80146C10.3139 6.89591 10.3702 6.98176 10.4418 7.05381C10.5134 7.12585 10.5989 7.1826 10.6932 7.2206C10.7874 7.2586 10.8883 7.27706 10.9899 7.27487C11.0915 7.27267 11.1915 7.24986 11.284 7.20782C11.3765 7.16578 11.4595 7.10539 11.5279 7.03032C11.7154 6.84282 12.0442 6.74782 12.4998 6.74782C13.1873 6.74782 13.7498 7.19657 13.7498 7.74782V8.02219C13.358 7.84138 12.9313 7.74858 12.4998 7.75032C10.9836 7.75032 9.74982 8.87157 9.74982 10.2503C9.74982 11.6291 10.9836 12.7503 12.4998 12.7503C12.9787 12.7515 13.4506 12.6361 13.8748 12.4141C13.9638 12.5483 14.0937 12.6503 14.2452 12.7049C14.3967 12.7596 14.5617 12.7641 14.7159 12.7177C14.8701 12.6713 15.0053 12.5765 15.1015 12.4473C15.1976 12.3181 15.2496 12.1614 15.2498 12.0003V7.75032C15.2498 6.37157 14.0161 5.25032 12.4998 5.25032ZM12.4998 11.2503C11.8123 11.2503 11.2498 10.8016 11.2498 10.2503C11.2498 9.69907 11.8123 9.25032 12.4998 9.25032C13.1873 9.25032 13.7498 9.69907 13.7498 10.2503C13.7498 10.8016 13.1873 11.2503 12.4998 11.2503Z" fill="#6F6F72"/>
</svg>
