<svg width="16" height="16" viewBox="0 0 16 16" fill="none" xmlns="http://www.w3.org/2000/svg">
<path d="M15.0171 11.6314L9.55145 2.13957C9.39314 1.86882 9.1667 1.64425 8.89466 1.48818C8.62261 1.33212 8.31445 1.25 8.00082 1.25C7.68719 1.25 7.37903 1.33212 7.10699 1.48818C6.83494 1.64425 6.60851 1.86882 6.4502 2.13957L0.984571 11.6314C0.830958 11.8942 0.75 12.193 0.75 12.4974C0.75 12.8017 0.830958 13.1006 0.984571 13.3633C1.14113 13.6354 1.36725 13.8609 1.63975 14.0168C1.91224 14.1727 2.22129 14.2532 2.5352 14.2502H13.4664C13.7801 14.253 14.0889 14.1723 14.3612 14.0165C14.6334 13.8606 14.8594 13.6352 15.0158 13.3633C15.1696 13.1007 15.2508 12.8019 15.251 12.4975C15.2512 12.1932 15.1705 11.8943 15.0171 11.6314ZM13.7171 12.6127C13.6917 12.656 13.655 12.6916 13.611 12.7159C13.567 12.7401 13.5173 12.7519 13.4671 12.7502H2.5352C2.485 12.7519 2.43528 12.7401 2.39127 12.7159C2.34726 12.6916 2.31062 12.656 2.2852 12.6127C2.26364 12.5776 2.25222 12.5373 2.25222 12.4961C2.25222 12.455 2.26364 12.4146 2.2852 12.3796L7.75082 2.88769C7.77768 2.84576 7.81465 2.81125 7.85834 2.78735C7.90203 2.76345 7.95102 2.75092 8.00082 2.75092C8.05062 2.75092 8.09962 2.76345 8.1433 2.78735C8.18699 2.81125 8.22397 2.84576 8.25082 2.88769L13.7164 12.3796C13.7381 12.4146 13.7496 12.4549 13.7497 12.496C13.7498 12.5372 13.7385 12.5776 13.7171 12.6127Z" fill="#6F6F72"/>
</svg>
