<svg width="16" height="16" viewBox="0 0 16 16" fill="none" xmlns="http://www.w3.org/2000/svg">
<path d="M3.25 2.5V13.5C3.25 13.6989 3.17098 13.8897 3.03033 14.0303C2.88968 14.171 2.69891 14.25 2.5 14.25C2.30109 14.25 2.11032 14.171 1.96967 14.0303C1.82902 13.8897 1.75 13.6989 1.75 13.5V2.5C1.75 2.30109 1.82902 2.11032 1.96967 1.96967C2.11032 1.82902 2.30109 1.75 2.5 1.75C2.69891 1.75 2.88968 1.82902 3.03033 1.96967C3.17098 2.11032 3.25 2.30109 3.25 2.5ZM4.25 6.25V4C4.25 3.66848 4.3817 3.35054 4.61612 3.11612C4.85054 2.8817 5.16848 2.75 5.5 2.75H11C11.3315 2.75 11.6495 2.8817 11.8839 3.11612C12.1183 3.35054 12.25 3.66848 12.25 4V6.25C12.25 6.58152 12.1183 6.89946 11.8839 7.13388C11.6495 7.3683 11.3315 7.5 11 7.5H5.5C5.16848 7.5 4.85054 7.3683 4.61612 7.13388C4.3817 6.89946 4.25 6.58152 4.25 6.25ZM5.75 6H10.75V4.25H5.75V6ZM14.75 9.75V12C14.75 12.3315 14.6183 12.6495 14.3839 12.8839C14.1495 13.1183 13.8315 13.25 13.5 13.25H5.5C5.16848 13.25 4.85054 13.1183 4.61612 12.8839C4.3817 12.6495 4.25 12.3315 4.25 12V9.75C4.25 9.41848 4.3817 9.10054 4.61612 8.86612C4.85054 8.6317 5.16848 8.5 5.5 8.5H13.5C13.8315 8.5 14.1495 8.6317 14.3839 8.86612C14.6183 9.10054 14.75 9.41848 14.75 9.75ZM13.25 10H5.75V11.75H13.25V10Z" fill="#6F6F72"/>
</svg>
