<svg width="24" height="24" viewBox="0 0 24 24" fill="none" xmlns="http://www.w3.org/2000/svg">
<path fill-rule="evenodd" clip-rule="evenodd" d="M20 6H4C3.44772 6 3 6.44772 3 7V17C3 17.5523 3.44772 18 4 18H20C20.5523 18 21 17.5523 21 17V7C21 6.44772 20.5523 6 20 6ZM4 5C2.89543 5 2 5.89543 2 7V17C2 18.1046 2.89543 19 4 19H20C21.1046 19 22 18.1046 22 17V7C22 5.89543 21.1046 5 20 5H4ZM4.59313 7.70938C4.75364 7.48467 5.06591 7.43263 5.29062 7.59313L11.7094 12.178C11.8832 12.3021 12.1168 12.3021 12.2906 12.178L18.7094 7.59313C18.9341 7.43263 19.2464 7.48467 19.4069 7.70938C19.5674 7.93409 19.5153 8.24636 19.2906 8.40687L12.8719 12.9917C12.3503 13.3642 11.6497 13.3642 11.1281 12.9917L4.70938 8.40687C4.48467 8.24636 4.43263 7.93409 4.59313 7.70938Z" fill="#0BA7FE"/>
</svg>
