<svg width="12" height="12" viewBox="0 0 12 12" fill="none" xmlns="http://www.w3.org/2000/svg">
<path fill-rule="evenodd" clip-rule="evenodd" d="M2 2.5C1.44772 2.5 1 2.94772 1 3.5V8.5C1 9.05228 1.44772 9.5 2 9.5H10C10.5523 9.5 11 9.05228 11 8.5V3.5C11 2.94772 10.5523 2.5 10 2.5H2ZM2.3 3.1C2.07909 2.93431 1.76569 2.97909 1.6 3.2C1.43431 3.42091 1.47909 3.73431 1.7 3.9L5.1 6.45C5.63333 6.85 6.36667 6.85 6.9 6.45L10.3 3.9C10.5209 3.73431 10.5657 3.42091 10.4 3.2C10.2343 2.97909 9.92091 2.93431 9.7 3.1L6.3 5.65C6.12222 5.78333 5.87778 5.78333 5.7 5.65L2.3 3.1Z" fill="white"/>
</svg>
