<svg width="10" height="10" viewBox="0 0 10 10" fill="none" xmlns="http://www.w3.org/2000/svg">
<path d="M4.45772 5.86538C4.45772 5.62312 4.47992 5.4273 4.52431 5.2779C4.57082 5.12649 4.63531 5.00637 4.71776 4.91754C4.80021 4.82669 4.91226 4.73887 5.05391 4.65408C5.20825 4.55717 5.3277 4.45926 5.41226 4.36034C5.49683 4.26141 5.53805 4.14735 5.53594 4.01814C5.53594 3.91922 5.51163 3.83241 5.463 3.75771C5.41438 3.681 5.34778 3.62245 5.26321 3.58207C5.18076 3.53968 5.08774 3.51747 4.98414 3.51545C4.88266 3.51747 4.78858 3.53968 4.7019 3.58207C4.61522 3.62447 4.5444 3.68705 4.48943 3.76983C4.43446 3.85058 4.40486 3.94748 4.40063 4.06054H3.5C3.50423 3.78598 3.57294 3.55482 3.70613 3.36707C3.83932 3.1773 4.01691 3.03598 4.2389 2.94311C4.463 2.84822 4.71353 2.80078 4.99049 2.80078C5.28647 2.80078 5.54757 2.84822 5.77378 2.94311C6.00211 3.038 6.1797 3.17528 6.30655 3.35495C6.43552 3.53261 6.5 3.74358 6.5 3.98786C6.5 4.22608 6.4408 4.42999 6.32241 4.59957C6.20613 4.76713 6.037 4.91451 5.81501 5.0417C5.69027 5.11236 5.59091 5.18402 5.51691 5.2567C5.44292 5.32938 5.38689 5.41417 5.34884 5.51108C5.3129 5.60798 5.29493 5.72608 5.29493 5.86538V5.93201H4.45772V5.86538ZM4.36258 6.79203C4.36047 6.70118 4.38266 6.6174 4.42918 6.54069C4.4778 6.46195 4.54334 6.40038 4.62579 6.35596C4.70825 6.31155 4.7981 6.28934 4.89535 6.28934C4.98837 6.28934 5.07505 6.31155 5.15539 6.35596C5.23573 6.40038 5.30021 6.46195 5.34884 6.54069C5.39746 6.6174 5.42178 6.70118 5.42178 6.79203C5.42178 6.8849 5.39746 6.9707 5.34884 7.04944C5.30021 7.12615 5.23573 7.18773 5.15539 7.23416C5.07505 7.27857 4.98837 7.30078 4.89535 7.30078C4.7981 7.30078 4.70825 7.27857 4.62579 7.23416C4.54334 7.18773 4.4778 7.12615 4.42918 7.04944C4.38266 6.9707 4.36047 6.8849 4.36258 6.79203Z" fill="white"/>
<circle cx="5" cy="5" r="4.5" stroke="white"/>
</svg>
