<svg width="15" height="15" viewBox="0 0 15 15" fill="none" xmlns="http://www.w3.org/2000/svg">
<path fill-rule="evenodd" clip-rule="evenodd" d="M7.67288 5.52409L4.51185 7.26156L5.87338 10.1894L8.69605 9.69127L10.5048 7.19928L7.67288 5.52409ZM7.24119 4.62027C7.52003 4.46701 7.85907 4.47237 8.13293 4.63437L11.1084 6.39452C11.5648 6.66452 11.6901 7.26862 11.3786 7.69779L9.48161 10.3114C9.34453 10.5002 9.13946 10.6285 8.90965 10.669L5.9715 11.1875C5.56996 11.2584 5.17095 11.0504 4.99902 10.6807L3.56568 7.59845C3.36599 7.16905 3.53323 6.65835 3.94824 6.43024L7.24119 4.62027ZM7.68198 2.93461L2.67568 6.5719L4.58792 12.4572H10.776L12.6883 6.5719L7.68198 2.93461ZM1.73523 6.01911C1.59503 6.12097 1.53637 6.30152 1.58992 6.46632L3.77157 13.1808C3.82512 13.3456 3.9787 13.4572 4.15199 13.4572H11.212C11.3853 13.4572 11.5388 13.3456 11.5924 13.1808L13.774 6.46632C13.8276 6.30152 13.7689 6.12097 13.6287 6.01911L7.91709 1.86936C7.7769 1.7675 7.58706 1.7675 7.44686 1.86936L1.73523 6.01911Z" fill="#D1D1D1"/>
</svg>
