<svg width="15" height="15" viewBox="0 0 15 15" fill="none" xmlns="http://www.w3.org/2000/svg">
<path fill-rule="evenodd" clip-rule="evenodd" d="M13.5 7.5C13.5 7.33162 13.4931 7.16487 13.4795 7C13.239 4.0851 10.9149 1.76101 8 1.52054C7.83513 1.50694 7.66838 1.5 7.5 1.5C7.33162 1.5 7.16487 1.50694 7 1.52054C3.92023 1.77461 1.5 4.35467 1.5 7.5C1.5 10.8137 4.18629 13.5 7.5 13.5C10.6453 13.5 13.2254 11.0798 13.4795 8C13.4931 7.83513 13.5 7.66838 13.5 7.5ZM12.4753 7C12.2408 4.63779 10.3622 2.75922 8 2.52469V7H12.4753ZM7 2.52469V7.4C7 7.73137 7.26863 8 7.6 8H12.4753C12.2245 10.5267 10.0927 12.5 7.5 12.5C4.73858 12.5 2.5 10.2614 2.5 7.5C2.5 4.90733 4.47334 2.77555 7 2.52469Z" fill="#D1D1D1"/>
</svg>
