<svg width="19" height="16" viewBox="0 0 19 16" fill="none" xmlns="http://www.w3.org/2000/svg">
<path d="M3.33594 2.0293L3.36534 13.4166C3.36549 13.4718 3.41037 13.5165 3.4656 13.5163L14.8529 13.4869" stroke="#D1D1D1" stroke-linecap="round"/>
<ellipse cx="0.690836" cy="0.615001" rx="0.690836" ry="0.615001" transform="matrix(0.999997 -0.00229887 0.00290078 0.999996 5.51953 4.39258)" fill="#D1D1D1"/>
<ellipse cx="0.492513" cy="0.438448" rx="0.492513" ry="0.438448" transform="matrix(0.999997 -0.00229887 0.00290078 0.999996 14.9707 2.70508)" fill="#D1D1D1"/>
<ellipse cx="12.6456" cy="5.5" rx="0.561656" ry="0.5" fill="#D1D1D1"/>
<ellipse cx="0.591016" cy="0.526137" rx="0.591016" ry="0.526137" transform="matrix(0.999997 -0.00229887 0.00290078 0.999996 5.83008 9.30273)" fill="#D1D1D1"/>
<ellipse cx="0.690836" cy="0.615001" rx="0.690836" ry="0.615001" transform="matrix(0.999997 -0.00229887 0.00290078 0.999996 10.4395 2.80273)" fill="#D1D1D1"/>
<ellipse cx="1.18203" cy="1.05227" rx="1.18203" ry="1.05227" transform="matrix(0.999997 -0.00229887 0.00290078 0.999996 12.918 8.05859)" fill="#D1D1D1"/>
<ellipse cx="0.690836" cy="0.615001" rx="0.690836" ry="0.615001" transform="matrix(0.999997 -0.00229887 0.00290078 0.999996 10.0664 10.082)" fill="#D1D1D1"/>
<ellipse cx="1.12331" cy="1" rx="1.12331" ry="1" transform="matrix(0.999997 -0.00229887 0.00290078 0.999996 8.48242 6.66602)" fill="#D1D1D1"/>
</svg>
