<svg width="48" height="48" viewBox="0 0 48 48" fill="none" xmlns="http://www.w3.org/2000/svg">
<path fill-rule="evenodd" clip-rule="evenodd" d="M30.0834 20.5182L30.4287 20.5943C30.5265 20.6159 30.6292 20.6275 30.7364 20.6275C31.5119 20.6275 32.1407 20.0049 32.1407 19.2368C32.1407 18.4688 31.5119 17.8461 30.7364 17.8461C29.9608 17.8461 29.3321 18.4688 29.3321 19.2368C29.3321 19.6549 29.5167 20.0287 29.8142 20.2857L30.0834 20.5182ZM30.1334 21.9083L27.6798 26.6692C28.2815 27.1713 28.6638 27.923 28.6638 28.7632C28.6638 30.2747 27.4265 31.5 25.9002 31.5C24.3739 31.5 23.1365 30.2747 23.1365 28.7632C23.1365 27.949 23.4956 27.2178 24.0653 26.7165L21.8088 23.0486C21.5969 23.1002 21.3754 23.1275 21.1474 23.1275C20.923 23.1275 20.7048 23.101 20.4959 23.051L19.4449 24.3982C19.8099 24.862 20.0273 25.4453 20.0273 26.0789C20.0273 27.5905 18.7899 28.8158 17.2636 28.8158C15.7373 28.8158 14.5 27.5905 14.5 26.0789C14.5 24.5674 15.7373 23.3421 17.2636 23.3421C17.6579 23.3421 18.0329 23.4239 18.3723 23.5712L19.2798 22.408C18.7291 21.9077 18.3838 21.1891 18.3838 20.3907C18.3838 18.8792 19.6211 17.6538 21.1474 17.6538C22.6738 17.6538 23.9111 18.8792 23.9111 20.3907C23.9111 21.1918 23.5635 21.9125 23.0095 22.413L25.2757 26.0965C25.4763 26.0506 25.6854 26.0263 25.9002 26.0263C26.0907 26.0263 26.2767 26.0454 26.4564 26.0818L28.9207 21.3002C28.3398 20.7985 27.9727 20.0601 27.9727 19.2368C27.9727 17.7253 29.21 16.5 30.7364 16.5C32.2627 16.5 33.5 17.7253 33.5 19.2368C33.5 20.7483 32.2627 21.9737 30.7364 21.9737C30.5293 21.9737 30.3275 21.9511 30.1334 21.9083ZM26.5309 27.4708L26.1843 27.4007C26.0936 27.3823 25.9988 27.3725 25.9002 27.3725C25.7891 27.3725 25.6827 27.385 25.5816 27.4081L25.2361 27.4872L24.9682 27.7229C24.6764 27.9796 24.4959 28.3496 24.4959 28.7632C24.4959 29.5312 25.1246 30.1539 25.9002 30.1539C26.6758 30.1539 27.3045 29.5312 27.3045 28.7632C27.3045 28.3366 27.1122 27.9559 26.804 27.6987L26.5309 27.4708ZM21.8288 21.6576L22.0934 21.4186C22.3769 21.1624 22.5517 20.7977 22.5517 20.3907C22.5517 19.6226 21.923 19 21.1474 19C20.3719 19 19.7431 19.6226 19.7431 20.3907C19.7431 20.7964 19.9168 21.1599 20.1987 21.416L20.4662 21.659L20.8152 21.7425C20.9204 21.7677 21.0314 21.7814 21.1474 21.7814C21.2653 21.7814 21.378 21.7673 21.4846 21.7413L21.8288 21.6576ZM18.1523 24.9456L17.8265 24.8041C17.6559 24.73 17.4665 24.6883 17.2636 24.6883C16.4881 24.6883 15.8593 25.3109 15.8593 26.0789C15.8593 26.847 16.4881 27.4696 17.2636 27.4696C18.0392 27.4696 18.6679 26.847 18.6679 26.0789C18.6679 25.7556 18.5582 25.4614 18.3726 25.2256L18.1523 24.9456Z" fill="#858585"/>
</svg>
