<svg width="48" height="48" viewBox="0 0 48 48" fill="none" xmlns="http://www.w3.org/2000/svg">
<path d="M23.1665 29.8333V21.5H17.3332V29.8333H23.1665ZM23.1665 19.8333V17.3333C23.1665 16.8731 23.5396 16.5 23.9998 16.5H31.4998C31.9601 16.5 32.3332 16.8731 32.3332 17.3333V30.6667C32.3332 31.1269 31.9601 31.5 31.4998 31.5H16.4998C16.0396 31.5 15.6665 31.1269 15.6665 30.6667V20.6667C15.6665 20.2064 16.0396 19.8333 16.4998 19.8333H23.1665ZM24.8332 18.1667V29.8333H30.6665V18.1667H24.8332ZM18.1665 27.3333H22.3332V29H18.1665V27.3333ZM25.6665 27.3333H29.8332V29H25.6665V27.3333ZM25.6665 24.8333H29.8332V26.5H25.6665V24.8333ZM25.6665 22.3333H29.8332V24H25.6665V22.3333ZM18.1665 24.8333H22.3332V26.5H18.1665V24.8333Z" fill="#858585"/>
</svg>
