<svg  width="48" height="48" viewBox="0 0 48 48" fill="none" xmlns="http://www.w3.org/2000/svg">
<path d="M19.6257 16.083C21.5817 16.083 23.1673 17.6687 23.1673 19.6247V23.1663H19.6257C17.6696 23.1663 16.084 21.5807 16.084 19.6247C16.084 17.6687 17.6696 16.083 19.6257 16.083ZM21.5007 21.4997V19.6247C21.5007 18.5891 20.6612 17.7497 19.6257 17.7497C18.5901 17.7497 17.7507 18.5891 17.7507 19.6247C17.7507 20.6602 18.5901 21.4997 19.6257 21.4997H21.5007ZM19.6257 24.833H23.1673V28.3747C23.1673 30.3307 21.5817 31.9163 19.6257 31.9163C17.6696 31.9163 16.084 30.3307 16.084 28.3747C16.084 26.4187 17.6696 24.833 19.6257 24.833ZM19.6257 26.4997C18.5901 26.4997 17.7507 27.3392 17.7507 28.3747C17.7507 29.4102 18.5901 30.2497 19.6257 30.2497C20.6612 30.2497 21.5007 29.4102 21.5007 28.3747V26.4997H19.6257ZM28.3757 16.083C30.3317 16.083 31.9173 17.6687 31.9173 19.6247C31.9173 21.5807 30.3317 23.1663 28.3757 23.1663H24.834V19.6247C24.834 17.6687 26.4197 16.083 28.3757 16.083ZM28.3757 21.4997C29.4112 21.4997 30.2507 20.6602 30.2507 19.6247C30.2507 18.5891 29.4112 17.7497 28.3757 17.7497C27.3402 17.7497 26.5007 18.5891 26.5007 19.6247V21.4997H28.3757ZM24.834 24.833H28.3757C30.3317 24.833 31.9173 26.4187 31.9173 28.3747C31.9173 30.3307 30.3317 31.9163 28.3757 31.9163C26.4197 31.9163 24.834 30.3307 24.834 28.3747V24.833ZM26.5007 26.4997V28.3747C26.5007 29.4102 27.3402 30.2497 28.3757 30.2497C29.4112 30.2497 30.2507 29.4102 30.2507 28.3747C30.2507 27.3392 29.4112 26.4997 28.3757 26.4997H26.5007Z" fill="#858585"/>
</svg>
