<svg width="48" height="48" viewBox="0 0 48 48" fill="none" xmlns="http://www.w3.org/2000/svg">
<path d="M15.8434 25.7172C15.5992 24.5633 15.6091 23.3957 15.8441 22.2841C16.7691 22.393 17.5764 22.0867 17.8404 21.4493C18.1044 20.812 17.7501 20.0245 17.0191 19.4475C17.6389 18.4953 18.4576 17.6627 19.4461 17.0195C20.0232 17.7509 20.8109 18.1054 21.4484 17.8414C22.0858 17.5773 22.3922 16.7696 22.283 15.8444C23.4368 15.6002 24.6044 15.6101 25.7161 15.8451C25.6072 16.77 25.9135 17.5774 26.5508 17.8414C27.1881 18.1053 27.9756 17.7511 28.5526 17.02C29.5048 17.6399 30.3375 18.4586 30.9807 19.4471C30.2493 20.0241 29.8948 20.8118 30.1588 21.4493C30.4228 22.0868 31.2305 22.3932 32.1558 22.284C32.3999 23.4377 32.39 24.6054 32.155 25.7171C31.2301 25.6082 30.4228 25.9145 30.1588 26.5517C29.8948 27.1891 30.2491 27.9766 30.9801 28.5536C30.3603 29.5057 29.5416 30.3384 28.553 30.9817C27.976 30.2502 27.1883 29.8957 26.5508 30.1597C25.9133 30.4238 25.607 31.2315 25.7162 32.1567C24.5623 32.4009 23.3947 32.391 22.2831 32.156C22.392 31.2311 22.0857 30.4237 21.4484 30.1597C20.811 29.8957 20.0236 30.25 19.4466 30.9811C18.4943 30.3612 17.6617 29.5426 17.0185 28.554C17.7499 27.977 18.1044 27.1892 17.8404 26.5517C17.5763 25.9143 16.7687 25.608 15.8434 25.7172ZM17.333 24.1757C18.2495 24.4294 19.0058 25.0102 19.3802 25.914C19.7545 26.8177 19.6304 27.7632 19.1617 28.5907C19.2421 28.6754 19.3248 28.7581 19.4096 28.8384C20.237 28.3697 21.1824 28.2457 22.0862 28.62C22.9899 28.9943 23.5707 29.7506 23.8243 30.667C23.9411 30.6702 24.0579 30.6702 24.1748 30.6672C24.4284 29.7507 25.0092 28.9943 25.913 28.62C26.8168 28.2456 27.7623 28.3697 28.5897 28.8385C28.6745 28.758 28.7571 28.6753 28.8374 28.5905C28.3688 27.7632 28.2447 26.8177 28.619 25.914C28.9933 25.0102 29.7496 24.4295 30.666 24.1758C30.6692 24.0591 30.6693 23.9422 30.6662 23.8253C29.7497 23.5717 28.9933 22.9909 28.619 22.0871C28.2446 21.1833 28.3688 20.2379 28.8375 19.4104C28.757 19.3257 28.6743 19.2431 28.5895 19.1627C27.7622 19.6314 26.8168 19.7555 25.913 19.3812C25.0093 19.0068 24.4285 18.2505 24.1748 17.3341C24.0581 17.331 23.9413 17.3309 23.8243 17.3339C23.5708 18.2504 22.9899 19.0068 22.0862 19.3812C21.1824 19.7555 20.2369 19.6314 19.4095 19.1627C19.3247 19.2431 19.2421 19.3258 19.1618 19.4106C19.6304 20.238 19.7545 21.1834 19.3802 22.0871C19.0058 22.9908 18.2496 23.5717 17.3331 23.8253C17.33 23.9421 17.3299 24.0589 17.333 24.1757ZM23.9996 26.5006C22.6188 26.5006 21.4996 25.3812 21.4996 24.0006C21.4996 22.6198 22.6188 21.5006 23.9996 21.5006C25.3803 21.5006 26.4996 22.6198 26.4996 24.0006C26.4996 25.3812 25.3803 26.5006 23.9996 26.5006ZM23.9996 24.8339C24.4598 24.8339 24.8329 24.4608 24.8329 24.0006C24.8329 23.5403 24.4598 23.1672 23.9996 23.1672C23.5393 23.1672 23.1663 23.5403 23.1663 24.0006C23.1663 24.4608 23.5393 24.8339 23.9996 24.8339Z" fill="#626A82"/>
<path d="M15.8434 25.7172C15.5992 24.5633 15.6091 23.3957 15.8441 22.2841C16.7691 22.393 17.5764 22.0867 17.8404 21.4493C18.1044 20.812 17.7501 20.0245 17.0191 19.4475C17.6389 18.4953 18.4576 17.6627 19.4461 17.0195C20.0232 17.7509 20.8109 18.1054 21.4484 17.8414C22.0858 17.5773 22.3922 16.7696 22.283 15.8444C23.4368 15.6002 24.6044 15.6101 25.7161 15.8451C25.6072 16.77 25.9135 17.5774 26.5508 17.8414C27.1881 18.1053 27.9756 17.7511 28.5526 17.02C29.5048 17.6399 30.3375 18.4586 30.9807 19.4471C30.2493 20.0241 29.8948 20.8118 30.1588 21.4493C30.4228 22.0868 31.2305 22.3932 32.1558 22.284C32.3999 23.4377 32.39 24.6054 32.155 25.7171C31.2301 25.6082 30.4228 25.9145 30.1588 26.5517C29.8948 27.1891 30.2491 27.9766 30.9801 28.5536C30.3603 29.5057 29.5416 30.3384 28.553 30.9817C27.976 30.2502 27.1883 29.8957 26.5508 30.1597C25.9133 30.4238 25.607 31.2315 25.7162 32.1567C24.5623 32.4009 23.3947 32.391 22.2831 32.156C22.392 31.2311 22.0857 30.4237 21.4484 30.1597C20.811 29.8957 20.0236 30.25 19.4466 30.9811C18.4943 30.3612 17.6617 29.5426 17.0185 28.554C17.7499 27.977 18.1044 27.1892 17.8404 26.5517C17.5763 25.9143 16.7687 25.608 15.8434 25.7172ZM17.333 24.1757C18.2495 24.4294 19.0058 25.0102 19.3802 25.914C19.7545 26.8177 19.6304 27.7632 19.1617 28.5907C19.2421 28.6754 19.3248 28.7581 19.4096 28.8384C20.237 28.3697 21.1824 28.2457 22.0862 28.62C22.9899 28.9943 23.5707 29.7506 23.8243 30.667C23.9411 30.6702 24.0579 30.6702 24.1748 30.6672C24.4284 29.7507 25.0092 28.9943 25.913 28.62C26.8168 28.2456 27.7623 28.3697 28.5897 28.8385C28.6745 28.758 28.7571 28.6753 28.8374 28.5905C28.3688 27.7632 28.2447 26.8177 28.619 25.914C28.9933 25.0102 29.7496 24.4295 30.666 24.1758C30.6692 24.0591 30.6693 23.9422 30.6662 23.8253C29.7497 23.5717 28.9933 22.9909 28.619 22.0871C28.2446 21.1833 28.3688 20.2379 28.8375 19.4104C28.757 19.3257 28.6743 19.2431 28.5895 19.1627C27.7622 19.6314 26.8168 19.7555 25.913 19.3812C25.0093 19.0068 24.4285 18.2505 24.1748 17.3341C24.0581 17.331 23.9413 17.3309 23.8243 17.3339C23.5708 18.2504 22.9899 19.0068 22.0862 19.3812C21.1824 19.7555 20.2369 19.6314 19.4095 19.1627C19.3247 19.2431 19.2421 19.3258 19.1618 19.4106C19.6304 20.238 19.7545 21.1834 19.3802 22.0871C19.0058 22.9908 18.2496 23.5717 17.3331 23.8253C17.33 23.9421 17.3299 24.0589 17.333 24.1757ZM23.9996 26.5006C22.6188 26.5006 21.4996 25.3812 21.4996 24.0006C21.4996 22.6198 22.6188 21.5006 23.9996 21.5006C25.3803 21.5006 26.4996 22.6198 26.4996 24.0006C26.4996 25.3812 25.3803 26.5006 23.9996 26.5006ZM23.9996 24.8339C24.4598 24.8339 24.8329 24.4608 24.8329 24.0006C24.8329 23.5403 24.4598 23.1672 23.9996 23.1672C23.5393 23.1672 23.1663 23.5403 23.1663 24.0006C23.1663 24.4608 23.5393 24.8339 23.9996 24.8339Z" fill="#858585"/>
</svg>
