<svg  width="48" height="48" viewBox="0 0 48 48" fill="none" xmlns="http://www.w3.org/2000/svg" style="display:none;">
<path d="M24.7221 16.4998L32.6607 30.2498C32.8908 30.6484 32.7542 31.1581 32.3557 31.3882C32.229 31.4613 32.0852 31.4998 31.939 31.4998H16.0618C15.6016 31.4998 15.2285 31.1268 15.2285 30.6665C15.2285 30.5202 15.267 30.3765 15.3402 30.2498L23.2787 16.4998C23.5088 16.1012 24.0185 15.9647 24.4171 16.1948C24.5437 16.2679 24.649 16.3731 24.7221 16.4998ZM17.5052 29.8332H30.4956L24.0004 18.5832L17.5052 29.8332ZM23.1671 27.3332H24.8337V28.9998H23.1671V27.3332ZM23.1671 21.4998H24.8337V25.6665H23.1671V21.4998Z" fill="#5B637A"/>
<path d="M24.7221 16.4998L32.6607 30.2498C32.8908 30.6484 32.7542 31.1581 32.3557 31.3882C32.229 31.4613 32.0852 31.4998 31.939 31.4998H16.0618C15.6016 31.4998 15.2285 31.1268 15.2285 30.6665C15.2285 30.5202 15.267 30.3765 15.3402 30.2498L23.2787 16.4998C23.5088 16.1012 24.0185 15.9647 24.4171 16.1948C24.5437 16.2679 24.649 16.3731 24.7221 16.4998ZM17.5052 29.8332H30.4956L24.0004 18.5832L17.5052 29.8332ZM23.1671 27.3332H24.8337V28.9998H23.1671V27.3332ZM23.1671 21.4998H24.8337V25.6665H23.1671V21.4998Z" fill="#858585"/>
</svg>
