<?xml version="1.0" encoding="utf-8"?>
<!-- Generator: Adobe Illustrator 28.3.0, SVG Export Plug-In . SVG Version: 6.00 Build 0)  -->
<svg version="1.1" id="레이어_1" xmlns="http://www.w3.org/2000/svg" xmlns:xlink="http://www.w3.org/1999/xlink" x="0px"
	 y="0px" viewBox="0 0 514 290" style="enable-background:new 0 0 514 290;" xml:space="preserve">
<style type="text/css">
	.st0{fill:url(#SVGID_1_);}
	.st1{fill:url(#SVGID_00000170981333560499542780000011222300563200620192_);filter:url(#Adobe_OpacityMaskFilter);}
	.st2{mask:url(#c_00000010990739754415727960000010348614221361382818_);}
	.st3{fill:url(#SVGID_00000083797970432806322410000018403976985827636101_);fill-opacity:0.6;}
	.st4{fill:none;stroke:url(#SVGID_00000065064975679975402260000015749683665667057291_);}
	.st5{fill:none;stroke:url(#SVGID_00000096737682342814305830000005717188229478029185_);}
	.st6{fill:none;stroke:url(#SVGID_00000047047661045016100490000003262123272054259606_);}
	.st7{fill:none;}
	.st8{fill:#202022;}
	.st9{fill:#858585;}
	.st10{fill:url(#SVGID_00000071526897777965730370000005048139148430068656_);}
	.st11{fill:none;stroke:url(#SVGID_00000000904150885392692380000001073396177195967415_);stroke-opacity:0.5;}
	.st12{fill:url(#SVGID_00000175318787491516756920000003334594963999762595_);}
	.st13{fill:#626A82;}
	.st14{fill:#FFFFFF;}
</style>
<linearGradient id="SVGID_1_" gradientUnits="userSpaceOnUse" x1="406.7241" y1="344.8131" x2="187.2241" y2="54.8132" gradientTransform="matrix(1 0 0 -1 0 292)">
	<stop  offset="0" style="stop-color:#343946"/>
	<stop  offset="1" style="stop-color:#3F3F3F"/>
</linearGradient>
<path class="st0" d="M10,0h494c5.5,0,10,4.5,10,10v270c0,5.5-4.5,10-10,10H10c-5.5,0-10-4.5-10-10V10C0,4.5,4.5,0,10,0z"/>
<defs>
	<filter id="Adobe_OpacityMaskFilter" filterUnits="userSpaceOnUse" x="176" y="74" width="339" height="218">
		<feColorMatrix  type="matrix" values="1 0 0 0 0  0 1 0 0 0  0 0 1 0 0  0 0 0 1 0"/>
	</filter>
</defs>
<mask maskUnits="userSpaceOnUse" x="176" y="74" width="339" height="218" id="c_00000010990739754415727960000010348614221361382818_">
	
		<linearGradient id="SVGID_00000163774918479397123910000014872300892021345164_" gradientUnits="userSpaceOnUse" x1="168.4751" y1="321.6408" x2="315.4752" y2="31.6409" gradientTransform="matrix(1 0 0 -1 0 292)">
		<stop  offset="0" style="stop-color:#1E1E1E"/>
		<stop  offset="1" style="stop-color:#3F3F3F"/>
	</linearGradient>
	<path style="fill:url(#SVGID_00000163774918479397123910000014872300892021345164_);filter:url(#Adobe_OpacityMaskFilter);" d="
		M10,0h494c5.5,0,10,4.5,10,10v270c0,5.5-4.5,10-10,10H10c-5.5,0-10-4.5-10-10V10C0,4.5,4.5,0,10,0z"/>
</mask>
<g class="st2">
	<g>
		
			<linearGradient id="SVGID_00000137854738593061987990000010715894910024499335_" gradientUnits="userSpaceOnUse" x1="318.6051" y1="230.3777" x2="378.4951" y2="-39.9083" gradientTransform="matrix(1 0 0 -1 0 292)">
			<stop  offset="0" style="stop-color:#5A5A5F;stop-opacity:0.8"/>
			<stop  offset="1" style="stop-color:#202224"/>
		</linearGradient>
		<path style="fill:url(#SVGID_00000137854738593061987990000010715894910024499335_);fill-opacity:0.6;" d="M515,74v206
			c0,6.6-5.4,12-12,12H176V88c0-7.7,6.3-14,14-14H515z"/>
		
			<radialGradient id="SVGID_00000012458958028592994430000000277565316116913820_" cx="-737.357" cy="1138.6161" r="1" gradientTransform="matrix(169.9272 9.877 6.3615 -109.4453 118398.7422 131973.0469)" gradientUnits="userSpaceOnUse">
			<stop  offset="0" style="stop-color:#105983"/>
			<stop  offset="1" style="stop-color:#FFFFFF;stop-opacity:0"/>
		</radialGradient>
		<path style="fill:none;stroke:url(#SVGID_00000012458958028592994430000000277565316116913820_);" d="M514.5,74.5V280
			c0,6.4-5.1,11.5-11.5,11.5H176.5V88c0-7.5,6-13.5,13.5-13.5H514.5z"/>
		
			<radialGradient id="SVGID_00000005950309753260088740000005404790543138246546_" cx="-742.604" cy="1144.6685" r="1" gradientTransform="matrix(254.3685 -356.8222 -672.6561 -479.5176 959138.8125 284285.5625)" gradientUnits="userSpaceOnUse">
			<stop  offset="0" style="stop-color:#6C7E8A"/>
			<stop  offset="1" style="stop-color:#FFFFFF;stop-opacity:0"/>
		</radialGradient>
		<path style="fill:none;stroke:url(#SVGID_00000005950309753260088740000005404790543138246546_);" d="M514.5,74.5V280
			c0,6.4-5.1,11.5-11.5,11.5H176.5V88c0-7.5,6-13.5,13.5-13.5H514.5z"/>
	</g>
	
		<linearGradient id="SVGID_00000165232276596129986880000016769208866608812184_" gradientUnits="userSpaceOnUse" x1="176.5" y1="197" x2="176.5" y2="31" gradientTransform="matrix(1 0 0 -1 0 292)">
		<stop  offset="0" style="stop-color:#73757A"/>
		<stop  offset="0.4715" style="stop-color:#60C6FF"/>
		<stop  offset="1" style="stop-color:#7C868C"/>
	</linearGradient>
	<path style="fill:none;stroke:url(#SVGID_00000165232276596129986880000016769208866608812184_);" d="M176.5,95v166"/>
	<path class="st7" d="M304,131h85v99h-85V131z"/>
</g>
<path class="st8" d="M36,40c0-5.5,4.5-10,10-10h46c5.5,0,10,4.5,10,10v250H36V40z"/>
<path class="st9" d="M69.8,72.8h5v-7.5L69,60.8l-5.8,4.5v7.5h5v-5h1.7C69.8,67.8,69.8,72.8,69.8,72.8z M76.5,73.7
	c0,0.5-0.4,0.8-0.8,0.8H62.3c-0.5,0-0.8-0.4-0.8-0.8v-8.8c0-0.3,0.1-0.5,0.3-0.7l6.7-5.2c0.3-0.2,0.7-0.2,1,0l6.7,5.2
	c0.2,0.2,0.3,0.4,0.3,0.7C76.5,64.9,76.5,73.7,76.5,73.7z"/>
<g>
	
		<linearGradient id="SVGID_00000173848397042713811690000018083601898485612436_" gradientUnits="userSpaceOnUse" x1="66.8537" y1="186.2608" x2="71.6416" y2="143.2948" gradientTransform="matrix(1 0 0 -1 0 292)">
		<stop  offset="0" style="stop-color:#313134"/>
		<stop  offset="1" style="stop-color:#235576"/>
	</linearGradient>
	<path style="fill:url(#SVGID_00000173848397042713811690000018083601898485612436_);" d="M55,101h28c5.5,0,10,4.5,10,10v28
		c0,5.5-4.5,10-10,10H55c-5.5,0-10-4.5-10-10v-28C45,105.5,49.5,101,55,101z"/>
	
		<linearGradient id="SVGID_00000062169170602068027560000016988585627576285861_" gradientUnits="userSpaceOnUse" x1="65.287" y1="166.5221" x2="45.5765" y2="163.9851" gradientTransform="matrix(1 0 0 -1 0 292)">
		<stop  offset="0" style="stop-color:#686868"/>
		<stop  offset="1" style="stop-color:#484848"/>
	</linearGradient>
	<path style="fill:none;stroke:url(#SVGID_00000062169170602068027560000016988585627576285861_);stroke-opacity:0.5;" d="M55,101.5
		h28c5.2,0,9.5,4.3,9.5,9.5v28c0,5.2-4.3,9.5-9.5,9.5H55c-5.2,0-9.5-4.3-9.5-9.5v-28C45.5,105.8,49.8,101.5,55,101.5z"/>
</g>
<linearGradient id="SVGID_00000126287285690242152950000002236793586824514470_" gradientUnits="userSpaceOnUse" x1="56" y1="190.5" x2="82" y2="190.5" gradientTransform="matrix(1 0 0 -1 0 292)">
	<stop  offset="0" style="stop-color:#4D4D4E"/>
	<stop  offset="0.435" style="stop-color:#B7B7B7"/>
	<stop  offset="1" style="stop-color:#49494B"/>
</linearGradient>
<path style="fill:url(#SVGID_00000126287285690242152950000002236793586824514470_);" d="M56,101h26v1H56V101z"/>
<path class="st13" d="M60.8,126.7c-0.2-1.2-0.2-2.3,0-3.4c0.9,0.1,1.7-0.2,2-0.8c0.3-0.6-0.1-1.4-0.8-2c0.6-1,1.4-1.8,2.4-2.4
	c0.6,0.7,1.4,1.1,2,0.8c0.6-0.3,0.9-1.1,0.8-2c1.2-0.2,2.3-0.2,3.4,0c-0.1,0.9,0.2,1.7,0.8,2s1.4-0.1,2-0.8c1,0.6,1.8,1.4,2.4,2.4
	c-0.7,0.6-1.1,1.4-0.8,2c0.3,0.6,1.1,0.9,2,0.8c0.2,1.2,0.2,2.3,0,3.4c-0.9-0.1-1.7,0.2-2,0.8s0.1,1.4,0.8,2c-0.6,1-1.4,1.8-2.4,2.4
	c-0.6-0.7-1.4-1.1-2-0.8c-0.6,0.3-0.9,1.1-0.8,2c-1.2,0.2-2.3,0.2-3.4,0c0.1-0.9-0.2-1.7-0.8-2c-0.6-0.3-1.4,0.1-2,0.8
	c-1-0.6-1.8-1.4-2.4-2.4c0.7-0.6,1.1-1.4,0.8-2C62.6,126.9,61.8,126.6,60.8,126.7L60.8,126.7z M62.3,125.2c0.9,0.3,1.7,0.8,2,1.7
	c0.4,0.9,0.3,1.8-0.2,2.7c0.1,0.1,0.2,0.2,0.2,0.2c0.8-0.5,1.8-0.6,2.7-0.2c0.9,0.4,1.5,1.1,1.7,2c0.1,0,0.2,0,0.4,0
	c0.3-0.9,0.8-1.7,1.7-2s1.8-0.2,2.7,0.2c0.1-0.1,0.2-0.2,0.2-0.2c-0.5-0.8-0.6-1.8-0.2-2.7s1.1-1.5,2-1.7c0-0.1,0-0.2,0-0.4
	c-0.9-0.3-1.7-0.8-2-1.7c-0.4-0.9-0.3-1.8,0.2-2.7c-0.1-0.1-0.2-0.2-0.2-0.2c-0.8,0.5-1.8,0.6-2.7,0.2c-0.9-0.4-1.5-1.1-1.7-2
	c-0.1,0-0.2,0-0.4,0c-0.3,0.9-0.8,1.7-1.7,2c-0.9,0.4-1.8,0.2-2.7-0.2c-0.1,0.1-0.2,0.2-0.2,0.2c0.5,0.8,0.6,1.8,0.2,2.7
	c-0.4,0.9-1.1,1.5-2,1.7C62.3,124.9,62.3,125.1,62.3,125.2L62.3,125.2z M69,127.5c-1.4,0-2.5-1.1-2.5-2.5c0-1.4,1.1-2.5,2.5-2.5
	c1.4,0,2.5,1.1,2.5,2.5C71.5,126.4,70.4,127.5,69,127.5z M69,125.8c0.5,0,0.8-0.4,0.8-0.8c0-0.5-0.4-0.8-0.8-0.8
	c-0.5,0-0.8,0.4-0.8,0.8C68.2,125.5,68.5,125.8,69,125.8z"/>
<path class="st14" d="M60.8,126.7c-0.2-1.2-0.2-2.3,0-3.4c0.9,0.1,1.7-0.2,2-0.8c0.3-0.6-0.1-1.4-0.8-2c0.6-1,1.4-1.8,2.4-2.4
	c0.6,0.7,1.4,1.1,2,0.8c0.6-0.3,0.9-1.1,0.8-2c1.2-0.2,2.3-0.2,3.4,0c-0.1,0.9,0.2,1.7,0.8,2s1.4-0.1,2-0.8c1,0.6,1.8,1.4,2.4,2.4
	c-0.7,0.6-1.1,1.4-0.8,2c0.3,0.6,1.1,0.9,2,0.8c0.2,1.2,0.2,2.3,0,3.4c-0.9-0.1-1.7,0.2-2,0.8s0.1,1.4,0.8,2c-0.6,1-1.4,1.8-2.4,2.4
	c-0.6-0.7-1.4-1.1-2-0.8c-0.6,0.3-0.9,1.1-0.8,2c-1.2,0.2-2.3,0.2-3.4,0c0.1-0.9-0.2-1.7-0.8-2c-0.6-0.3-1.4,0.1-2,0.8
	c-1-0.6-1.8-1.4-2.4-2.4c0.7-0.6,1.1-1.4,0.8-2C62.6,126.9,61.8,126.6,60.8,126.7L60.8,126.7z M62.3,125.2c0.9,0.3,1.7,0.8,2,1.7
	c0.4,0.9,0.3,1.8-0.2,2.7c0.1,0.1,0.2,0.2,0.2,0.2c0.8-0.5,1.8-0.6,2.7-0.2c0.9,0.4,1.5,1.1,1.7,2c0.1,0,0.2,0,0.4,0
	c0.3-0.9,0.8-1.7,1.7-2s1.8-0.2,2.7,0.2c0.1-0.1,0.2-0.2,0.2-0.2c-0.5-0.8-0.6-1.8-0.2-2.7s1.1-1.5,2-1.7c0-0.1,0-0.2,0-0.4
	c-0.9-0.3-1.7-0.8-2-1.7c-0.4-0.9-0.3-1.8,0.2-2.7c-0.1-0.1-0.2-0.2-0.2-0.2c-0.8,0.5-1.8,0.6-2.7,0.2c-0.9-0.4-1.5-1.1-1.7-2
	c-0.1,0-0.2,0-0.4,0c-0.3,0.9-0.8,1.7-1.7,2c-0.9,0.4-1.8,0.2-2.7-0.2c-0.1,0.1-0.2,0.2-0.2,0.2c0.5,0.8,0.6,1.8,0.2,2.7
	c-0.4,0.9-1.1,1.5-2,1.7C62.3,124.9,62.3,125.1,62.3,125.2L62.3,125.2z M69,127.5c-1.4,0-2.5-1.1-2.5-2.5c0-1.4,1.1-2.5,2.5-2.5
	c1.4,0,2.5,1.1,2.5,2.5C71.5,126.4,70.4,127.5,69,127.5z M69,125.8c0.5,0,0.8-0.4,0.8-0.8c0-0.5-0.4-0.8-0.8-0.8
	c-0.5,0-0.8,0.4-0.8,0.8C68.2,125.5,68.5,125.8,69,125.8z"/>
<path class="st9" d="M64.6,175.1c2,0,3.5,1.6,3.5,3.5v3.5h-3.5c-2,0-3.5-1.6-3.5-3.5S62.7,175.1,64.6,175.1z M66.5,180.5v-1.9
	c0-1-0.8-1.9-1.9-1.9c-1,0-1.9,0.8-1.9,1.9c0,1,0.8,1.9,1.9,1.9H66.5z M64.6,183.8h3.5v3.5c0,2-1.6,3.5-3.5,3.5
	c-2,0-3.5-1.6-3.5-3.5S62.7,183.8,64.6,183.8z M64.6,185.5c-1,0-1.9,0.8-1.9,1.9c0,1,0.8,1.9,1.9,1.9c1,0,1.9-0.8,1.9-1.9v-1.9H64.6
	z M73.4,175.1c2,0,3.5,1.6,3.5,3.5c0,2-1.6,3.5-3.5,3.5h-3.5v-3.5C69.8,176.7,71.4,175.1,73.4,175.1z M73.4,180.5
	c1,0,1.9-0.8,1.9-1.9c0-1-0.8-1.9-1.9-1.9s-1.9,0.8-1.9,1.9v1.9H73.4z M69.8,183.8h3.5c2,0,3.5,1.6,3.5,3.5c0,2-1.6,3.5-3.5,3.5
	s-3.5-1.6-3.5-3.5V183.8z M71.5,185.5v1.9c0,1,0.8,1.9,1.9,1.9s1.9-0.8,1.9-1.9c0-1-0.8-1.9-1.9-1.9H71.5z M68.2,246.8v-8.3h-5.8
	v8.3L68.2,246.8L68.2,246.8z M68.2,236.8v-2.5c0-0.5,0.4-0.8,0.8-0.8h7.5c0.5,0,0.8,0.4,0.8,0.8v13.3c0,0.5-0.4,0.8-0.8,0.8h-15
	c-0.5,0-0.8-0.4-0.8-0.8v-10c0-0.5,0.4-0.8,0.8-0.8H68.2z M69.8,235.2v11.7h5.8v-11.7H69.8z M63.2,244.3h4.2v1.7h-4.2
	C63.2,246,63.2,244.3,63.2,244.3z M70.7,244.3h4.2v1.7h-4.2V244.3z M70.7,241.8h4.2v1.7h-4.2V241.8z M70.7,239.3h4.2v1.7h-4.2V239.3
	z M63.2,241.8h4.2v1.7h-4.2V241.8z"/>
<image style="overflow:visible;" width="170" height="198" xlink:href="Group 1707484851.png"  transform="matrix(0.5 0 0 0.5 304 130.8735)">
</image>
</svg>
