<?xml version="1.0" encoding="utf-8"?>
<!-- Generator: Adobe Illustrator 28.3.0, SVG Export Plug-In . SVG Version: 6.00 Build 0)  -->
<svg version="1.1" id="레이어_1" xmlns="http://www.w3.org/2000/svg" xmlns:xlink="http://www.w3.org/1999/xlink" x="0px"
	 y="0px" viewBox="0 0 514 290" style="enable-background:new 0 0 514 290;" xml:space="preserve">
<style type="text/css">
	.st0{fill:url(#SVGID_1_);}
	.st1{fill:#FFFFFF;filter:url(#Adobe_OpacityMaskFilter);}
	.st2{mask:url(#mask0_252_292_00000118354869758236055800000004744192698010727820_);}
	.st3{fill:url(#SVGID_00000043434640560847053570000007406574864510338196_);}
	.st4{fill:url(#SVGID_00000178922444409106947520000013542893531082390426_);fill-opacity:0.6;}
	.st5{fill:none;stroke:url(#SVGID_00000011720472971748290740000017723075381123691652_);}
	.st6{fill:none;stroke:url(#SVGID_00000161595727554128264850000017425338386970345628_);}
	.st7{fill:none;}
	.st8{fill:#FFFFFF;}
	.st9{fill:#858585;}
	.st10{fill:url(#SVGID_00000047045730108798967750000008231063109671595908_);}
	.st11{fill:none;stroke:#DBDBDB;stroke-opacity:0.5;}
	.st12{fill:url(#SVGID_00000101792772651259431120000008549719543718700717_);}
	.st13{fill:#626A82;}
</style>
<linearGradient id="SVGID_1_" gradientUnits="userSpaceOnUse" x1="406.7241" y1="344.8131" x2="187.2241" y2="54.8132" gradientTransform="matrix(1 0 0 -1 0 292)">
	<stop  offset="0" style="stop-color:#343946"/>
	<stop  offset="1" style="stop-color:#3F3F3F"/>
</linearGradient>
<path class="st0" d="M10,0h494c5.5,0,10,4.5,10,10v270c0,5.5-4.5,10-10,10H10c-5.5,0-10-4.5-10-10V10C0,4.5,4.5,0,10,0z"/>
<defs>
	<filter id="Adobe_OpacityMaskFilter" filterUnits="userSpaceOnUse" x="0" y="0" width="515" height="292">
		<feColorMatrix  type="matrix" values="1 0 0 0 0  0 1 0 0 0  0 0 1 0 0  0 0 0 1 0"/>
	</filter>
</defs>
<mask maskUnits="userSpaceOnUse" x="0" y="0" width="515" height="292" id="mask0_252_292_00000118354869758236055800000004744192698010727820_">
	<path class="st1" d="M10,0h494c5.5,0,10,4.5,10,10v270c0,5.5-4.5,10-10,10H10c-5.5,0-10-4.5-10-10V10C0,4.5,4.5,0,10,0z"/>
</mask>
<g class="st2">
	
		<linearGradient id="SVGID_00000018201996137225671220000015061436296871792827_" gradientUnits="userSpaceOnUse" x1="403.8142" y1="346.8304" x2="187.8142" y2="52.8304" gradientTransform="matrix(1 0 0 -1 0 292)">
		<stop  offset="0" style="stop-color:#D3E1F3"/>
		<stop  offset="1" style="stop-color:#DADADA"/>
	</linearGradient>
	<path style="fill:url(#SVGID_00000018201996137225671220000015061436296871792827_);" d="M10,0h494c5.5,0,10,4.5,10,10v270
		c0,5.5-4.5,10-10,10H10c-5.5,0-10-4.5-10-10V10C0,4.5,4.5,0,10,0z"/>
	<g>
		
			<linearGradient id="SVGID_00000039134460240268075610000005596168775907142028_" gradientUnits="userSpaceOnUse" x1="318.6051" y1="230.3777" x2="378.4951" y2="-39.9083" gradientTransform="matrix(1 0 0 -1 0 292)">
			<stop  offset="0" style="stop-color:#EBF1F9"/>
			<stop  offset="1" style="stop-color:#FFFFFF"/>
		</linearGradient>
		<path style="fill:url(#SVGID_00000039134460240268075610000005596168775907142028_);fill-opacity:0.6;" d="M515,74v204
			c0,7.7-6.3,14-14,14H176V88c0-7.7,6.3-14,14-14H515z"/>
		
			<radialGradient id="SVGID_00000013153092118705960700000010981406863709216185_" cx="-737.357" cy="1138.616" r="1" gradientTransform="matrix(169.9272 9.877 6.3615 -109.4453 118398.7422 131973.0312)" gradientUnits="userSpaceOnUse">
			<stop  offset="0" style="stop-color:#FFFFFF"/>
			<stop  offset="1" style="stop-color:#FFFFFF;stop-opacity:0"/>
		</radialGradient>
		<path style="fill:none;stroke:url(#SVGID_00000013153092118705960700000010981406863709216185_);" d="M514.5,74.5V278
			c0,7.5-6,13.5-13.5,13.5H176.5V88c0-7.5,6-13.5,13.5-13.5H514.5z"/>
		
			<radialGradient id="SVGID_00000106843807871862281860000000302313128395919037_" cx="-742.604" cy="1144.6685" r="1" gradientTransform="matrix(254.3685 -356.8222 -672.6561 -479.5176 959138.8125 284285.5625)" gradientUnits="userSpaceOnUse">
			<stop  offset="0" style="stop-color:#EBEFF7"/>
			<stop  offset="1" style="stop-color:#FFFFFF;stop-opacity:0"/>
		</radialGradient>
		<path style="fill:none;stroke:url(#SVGID_00000106843807871862281860000000302313128395919037_);" d="M514.5,74.5V278
			c0,7.5-6,13.5-13.5,13.5H176.5V88c0-7.5,6-13.5,13.5-13.5H514.5z"/>
	</g>
	<rect x="304" y="131" class="st7" width="85" height="99"/>
</g>
<path class="st8" d="M36,40c0-5.5,4.5-10,10-10h46c5.5,0,10,4.5,10,10v250H36V40z"/>
<path class="st9" d="M69.8,72.8h5v-7.5L69,60.8l-5.8,4.5v7.5h5v-5h1.7V72.8z M76.5,73.7c0,0.5-0.4,0.8-0.8,0.8H62.3
	c-0.5,0-0.8-0.4-0.8-0.8v-8.8c0-0.3,0.1-0.5,0.3-0.7l6.7-5.2c0.3-0.2,0.7-0.2,1,0l6.7,5.2c0.2,0.2,0.3,0.4,0.3,0.7V73.7z"/>
<g>
	
		<linearGradient id="SVGID_00000125582371915105473490000009226892529888131984_" gradientUnits="userSpaceOnUse" x1="66.8537" y1="186.2608" x2="71.6416" y2="143.2948" gradientTransform="matrix(1 0 0 -1 0 292)">
		<stop  offset="0" style="stop-color:#E1E1E1"/>
		<stop  offset="1" style="stop-color:#75A7C8"/>
	</linearGradient>
	<path style="fill:url(#SVGID_00000125582371915105473490000009226892529888131984_);" d="M55,101h28c5.5,0,10,4.5,10,10v28
		c0,5.5-4.5,10-10,10H55c-5.5,0-10-4.5-10-10v-28C45,105.5,49.5,101,55,101z"/>
	<path class="st11" d="M55,101.5h28c5.2,0,9.5,4.3,9.5,9.5v28c0,5.2-4.3,9.5-9.5,9.5H55c-5.2,0-9.5-4.3-9.5-9.5v-28
		C45.5,105.8,49.8,101.5,55,101.5z"/>
</g>
<linearGradient id="SVGID_00000064343297071346496720000005256594847449167511_" gradientUnits="userSpaceOnUse" x1="56" y1="190.5" x2="82" y2="190.5" gradientTransform="matrix(1 0 0 -1 0 292)">
	<stop  offset="0" style="stop-color:#DFDFDF"/>
	<stop  offset="0.435" style="stop-color:#EBEBEB"/>
	<stop  offset="1" style="stop-color:#DFDFDF"/>
</linearGradient>
<rect x="56" y="101" style="fill:url(#SVGID_00000064343297071346496720000005256594847449167511_);" width="26" height="1"/>
<path class="st13" d="M60.8,126.7c-0.2-1.2-0.2-2.3,0-3.4c0.9,0.1,1.7-0.2,2-0.8c0.3-0.6-0.1-1.4-0.8-2c0.6-1,1.4-1.8,2.4-2.4
	c0.6,0.7,1.4,1.1,2,0.8c0.6-0.3,0.9-1.1,0.8-2c1.2-0.2,2.3-0.2,3.4,0c-0.1,0.9,0.2,1.7,0.8,2c0.6,0.3,1.4-0.1,2-0.8
	c1,0.6,1.8,1.4,2.4,2.4c-0.7,0.6-1.1,1.4-0.8,2c0.3,0.6,1.1,0.9,2,0.8c0.2,1.2,0.2,2.3,0,3.4c-0.9-0.1-1.7,0.2-2,0.8s0.1,1.4,0.8,2
	c-0.6,1-1.4,1.8-2.4,2.4c-0.6-0.7-1.4-1.1-2-0.8c-0.6,0.3-0.9,1.1-0.8,2c-1.2,0.2-2.3,0.2-3.4,0c0.1-0.9-0.2-1.7-0.8-2
	c-0.6-0.3-1.4,0.1-2,0.8c-1-0.6-1.8-1.4-2.4-2.4c0.7-0.6,1.1-1.4,0.8-2C62.6,126.9,61.8,126.6,60.8,126.7z M62.3,125.2
	c0.9,0.3,1.7,0.8,2,1.7c0.4,0.9,0.3,1.8-0.2,2.7c0.1,0.1,0.2,0.2,0.2,0.2c0.8-0.5,1.8-0.6,2.7-0.2c0.9,0.4,1.5,1.1,1.7,2
	c0.1,0,0.2,0,0.4,0c0.3-0.9,0.8-1.7,1.7-2c0.9-0.4,1.8-0.2,2.7,0.2c0.1-0.1,0.2-0.2,0.2-0.2c-0.5-0.8-0.6-1.8-0.2-2.7
	c0.4-0.9,1.1-1.5,2-1.7c0-0.1,0-0.2,0-0.4c-0.9-0.3-1.7-0.8-2-1.7c-0.4-0.9-0.3-1.8,0.2-2.7c-0.1-0.1-0.2-0.2-0.2-0.2
	c-0.8,0.5-1.8,0.6-2.7,0.2c-0.9-0.4-1.5-1.1-1.7-2c-0.1,0-0.2,0-0.4,0c-0.3,0.9-0.8,1.7-1.7,2c-0.9,0.4-1.8,0.2-2.7-0.2
	c-0.1,0.1-0.2,0.2-0.2,0.2c0.5,0.8,0.6,1.8,0.2,2.7c-0.4,0.9-1.1,1.5-2,1.7C62.3,124.9,62.3,125.1,62.3,125.2z M69,127.5
	c-1.4,0-2.5-1.1-2.5-2.5c0-1.4,1.1-2.5,2.5-2.5c1.4,0,2.5,1.1,2.5,2.5C71.5,126.4,70.4,127.5,69,127.5z M69,125.8
	c0.5,0,0.8-0.4,0.8-0.8c0-0.5-0.4-0.8-0.8-0.8c-0.5,0-0.8,0.4-0.8,0.8C68.2,125.5,68.5,125.8,69,125.8z"/>
<path class="st8" d="M60.8,126.7c-0.2-1.2-0.2-2.3,0-3.4c0.9,0.1,1.7-0.2,2-0.8c0.3-0.6-0.1-1.4-0.8-2c0.6-1,1.4-1.8,2.4-2.4
	c0.6,0.7,1.4,1.1,2,0.8c0.6-0.3,0.9-1.1,0.8-2c1.2-0.2,2.3-0.2,3.4,0c-0.1,0.9,0.2,1.7,0.8,2c0.6,0.3,1.4-0.1,2-0.8
	c1,0.6,1.8,1.4,2.4,2.4c-0.7,0.6-1.1,1.4-0.8,2c0.3,0.6,1.1,0.9,2,0.8c0.2,1.2,0.2,2.3,0,3.4c-0.9-0.1-1.7,0.2-2,0.8s0.1,1.4,0.8,2
	c-0.6,1-1.4,1.8-2.4,2.4c-0.6-0.7-1.4-1.1-2-0.8c-0.6,0.3-0.9,1.1-0.8,2c-1.2,0.2-2.3,0.2-3.4,0c0.1-0.9-0.2-1.7-0.8-2
	c-0.6-0.3-1.4,0.1-2,0.8c-1-0.6-1.8-1.4-2.4-2.4c0.7-0.6,1.1-1.4,0.8-2C62.6,126.9,61.8,126.6,60.8,126.7z M62.3,125.2
	c0.9,0.3,1.7,0.8,2,1.7c0.4,0.9,0.3,1.8-0.2,2.7c0.1,0.1,0.2,0.2,0.2,0.2c0.8-0.5,1.8-0.6,2.7-0.2c0.9,0.4,1.5,1.1,1.7,2
	c0.1,0,0.2,0,0.4,0c0.3-0.9,0.8-1.7,1.7-2c0.9-0.4,1.8-0.2,2.7,0.2c0.1-0.1,0.2-0.2,0.2-0.2c-0.5-0.8-0.6-1.8-0.2-2.7
	c0.4-0.9,1.1-1.5,2-1.7c0-0.1,0-0.2,0-0.4c-0.9-0.3-1.7-0.8-2-1.7c-0.4-0.9-0.3-1.8,0.2-2.7c-0.1-0.1-0.2-0.2-0.2-0.2
	c-0.8,0.5-1.8,0.6-2.7,0.2c-0.9-0.4-1.5-1.1-1.7-2c-0.1,0-0.2,0-0.4,0c-0.3,0.9-0.8,1.7-1.7,2c-0.9,0.4-1.8,0.2-2.7-0.2
	c-0.1,0.1-0.2,0.2-0.2,0.2c0.5,0.8,0.6,1.8,0.2,2.7c-0.4,0.9-1.1,1.5-2,1.7C62.3,124.9,62.3,125.1,62.3,125.2z M69,127.5
	c-1.4,0-2.5-1.1-2.5-2.5c0-1.4,1.1-2.5,2.5-2.5c1.4,0,2.5,1.1,2.5,2.5C71.5,126.4,70.4,127.5,69,127.5z M69,125.8
	c0.5,0,0.8-0.4,0.8-0.8c0-0.5-0.4-0.8-0.8-0.8c-0.5,0-0.8,0.4-0.8,0.8C68.2,125.5,68.5,125.8,69,125.8z"/>
<path class="st9" d="M64.6,178.1c2,0,3.5,1.6,3.5,3.5v3.5h-3.5c-2,0-3.5-1.6-3.5-3.5C61.1,179.7,62.7,178.1,64.6,178.1z M66.5,183.5
	v-1.9c0-1-0.8-1.9-1.9-1.9c-1,0-1.9,0.8-1.9,1.9c0,1,0.8,1.9,1.9,1.9H66.5z M64.6,186.8h3.5v3.5c0,2-1.6,3.5-3.5,3.5
	c-2,0-3.5-1.6-3.5-3.5C61.1,188.4,62.7,186.8,64.6,186.8z M64.6,188.5c-1,0-1.9,0.8-1.9,1.9c0,1,0.8,1.9,1.9,1.9
	c1,0,1.9-0.8,1.9-1.9v-1.9H64.6z M73.4,178.1c2,0,3.5,1.6,3.5,3.5c0,2-1.6,3.5-3.5,3.5h-3.5v-3.5C69.8,179.7,71.4,178.1,73.4,178.1z
	 M73.4,183.5c1,0,1.9-0.8,1.9-1.9c0-1-0.8-1.9-1.9-1.9s-1.9,0.8-1.9,1.9v1.9H73.4z M69.8,186.8h3.5c2,0,3.5,1.6,3.5,3.5
	c0,2-1.6,3.5-3.5,3.5s-3.5-1.6-3.5-3.5V186.8z M71.5,188.5v1.9c0,1,0.8,1.9,1.9,1.9s1.9-0.8,1.9-1.9c0-1-0.8-1.9-1.9-1.9H71.5z"/>
<path class="st9" d="M68.2,249.8v-8.3h-5.8v8.3H68.2z M68.2,239.8v-2.5c0-0.5,0.4-0.8,0.8-0.8h7.5c0.5,0,0.8,0.4,0.8,0.8v13.3
	c0,0.5-0.4,0.8-0.8,0.8h-15c-0.5,0-0.8-0.4-0.8-0.8v-10c0-0.5,0.4-0.8,0.8-0.8H68.2z M69.8,238.2v11.7h5.8v-11.7H69.8z M63.2,247.3
	h4.2v1.7h-4.2V247.3z M70.7,247.3h4.2v1.7h-4.2V247.3z M70.7,244.8h4.2v1.7h-4.2V244.8z M70.7,242.3h4.2v1.7h-4.2V242.3z
	 M63.2,244.8h4.2v1.7h-4.2V244.8z"/>
<image style="overflow:visible;" width="170" height="198" xlink:href="Group 1707484851.png"  transform="matrix(0.5 0 0 0.5 304 130.582)">
</image>
</svg>
