<svg width="20" height="20" viewBox="0 0 20 20" fill="none" xmlns="http://www.w3.org/2000/svg">
<g clip-path="url(#clip0_52_59501)">
<path d="M9.99935 13.9993C7.79021 13.9993 5.99935 12.2085 5.99935 9.99935C5.99935 7.79021 7.79021 5.99935 9.99935 5.99935C12.2085 5.99935 13.9993 7.79021 13.9993 9.99935C13.9993 12.2085 12.2085 13.9993 9.99935 13.9993ZM9.33268 2.66602H10.666V4.66602H9.33268V2.66602ZM9.33268 15.3327H10.666V17.3327H9.33268V15.3327ZM4.3425 5.2853L5.2853 4.3425L6.69952 5.75671L5.75671 6.69952L4.3425 5.2853ZM13.2991 14.242L14.242 13.2991L15.6562 14.7134L14.7134 15.6562L13.2991 14.242ZM14.7134 4.3425L15.6562 5.2853L14.242 6.69952L13.2991 5.75671L14.7134 4.3425ZM5.75671 13.2991L6.69952 14.242L5.2853 15.6562L4.3425 14.7134L5.75671 13.2991ZM17.3327 9.33268V10.666H15.3327V9.33268H17.3327ZM4.66602 9.33268V10.666H2.66602V9.33268H4.66602Z" fill="white"/>
</g>
<defs>
<clipPath id="clip0_52_59501">
<rect width="16" height="16" fill="white" transform="translate(2 2)"/>
</clipPath>
</defs>
</svg>
