<svg fill="none" xmlns="http://www.w3.org/2000/svg" style="display:none;">
<symbol id="mainBigIcon6" width="30" height="30" viewBox="0 0 30 30" >
<path d="M16.0841 4.06271L27.992 24.6878C28.3372 25.2856 28.1323 26.0501 27.5345 26.3953C27.3445 26.505 27.1288 26.5628 26.9095 26.5628H3.09375C2.4034 26.5628 1.84375 26.0031 1.84375 25.3128C1.84375 25.0933 1.90151 24.8778 2.01123 24.6878L13.9191 4.06271C14.2642 3.46484 15.0287 3.26 15.6266 3.60518C15.8166 3.71489 15.9745 3.87269 16.0841 4.06271ZM5.25881 24.0628H24.7443L15.0016 7.18771L5.25881 24.0628ZM13.7516 20.3128H16.2516V22.8128H13.7516V20.3128ZM13.7516 11.5627H16.2516V17.8128H13.7516V11.5627Z" fill="#C5D3F1"/>
</symbol>
</svg>
