<svg fill="none" xmlns="http://www.w3.org/2000/svg" style="display:none;">
<symbol id="mainBigIcon3" width="30" height="30" viewBox="0 0 30 30" >
<path d="M2.76516 17.5743C2.39886 15.8435 2.41369 14.092 2.76621 12.4246C4.15361 12.588 5.36459 12.1285 5.76057 11.1725C6.15656 10.2165 5.62516 9.03535 4.52859 8.16983C5.45838 6.74152 6.68639 5.49253 8.16918 4.52776C9.03476 5.62488 10.2163 6.15666 11.1725 5.76057C12.1288 5.36448 12.5883 4.153 12.4245 2.76516C14.1551 2.39886 15.9066 2.4137 17.5741 2.7662C17.4108 4.1536 17.8703 5.36458 18.8263 5.76057C19.7821 6.15656 20.9634 5.62515 21.8289 4.5286C23.2573 5.45838 24.5063 6.6864 25.471 8.16917C24.3739 9.03476 23.8421 10.2163 24.2381 11.1725C24.6343 12.1288 25.8458 12.5883 27.2336 12.4245C27.5999 14.1551 27.585 15.9066 27.2325 17.5741C25.8451 17.4108 24.6341 17.8703 24.2381 18.8261C23.8421 19.7821 24.3736 20.9634 25.4701 21.8289C24.5404 23.2571 23.3124 24.5061 21.8295 25.471C20.964 24.3739 19.7824 23.842 18.8263 24.2381C17.87 24.6343 17.4105 25.8458 17.5743 27.2335C15.8435 27.5999 14.092 27.585 12.4246 27.2325C12.588 25.8451 12.1285 24.6341 11.1725 24.2381C10.2165 23.8421 9.03536 24.3735 8.16983 25.4701C6.74152 24.5404 5.49253 23.3124 4.52777 21.8295C5.62488 20.964 6.15666 19.7824 5.76057 18.8261C5.36449 17.87 4.15299 17.4105 2.76516 17.5743ZM4.99944 15.2621C6.37421 15.6426 7.50873 16.5138 8.07027 17.8695C8.63181 19.2251 8.44559 20.6434 7.74252 21.8845C7.86322 22.0116 7.98723 22.1356 8.11442 22.2561C9.35551 21.5531 10.7737 21.367 12.1292 21.9285C13.4849 22.49 14.356 23.6244 14.7365 24.999C14.9116 25.0038 15.0869 25.0039 15.2621 24.9993C15.6426 23.6245 16.5138 22.49 17.8695 21.9285C19.2251 21.3669 20.6434 21.5531 21.8845 22.2563C22.0118 22.1355 22.1356 22.0115 22.2561 21.8843C21.5531 20.6433 21.367 19.225 21.9285 17.8695C22.49 16.5139 23.6244 15.6428 24.999 15.2623C25.0038 15.0871 25.0039 14.9118 24.9993 14.7365C23.6245 14.3561 22.49 13.4849 21.9285 12.1292C21.3669 10.7736 21.5531 9.35532 22.2563 8.1142C22.1355 7.98703 22.0115 7.86315 21.8843 7.74263C20.6433 8.44561 19.2251 8.63177 17.8695 8.07027C16.5139 7.50877 15.6428 6.37435 15.2623 4.9997C15.0871 4.99497 14.9119 4.99488 14.7365 4.99944C14.3561 6.37421 13.4849 7.50873 12.1292 8.07027C10.7736 8.63181 9.35533 8.44558 8.11419 7.74252C7.98703 7.86322 7.86314 7.98723 7.74264 8.11442C8.44561 9.35551 8.63177 10.7737 8.07027 12.1292C7.50877 13.4848 6.37434 14.356 4.99969 14.7365C4.99497 14.9116 4.99488 15.0869 4.99944 15.2621ZM14.9994 18.7494C12.9283 18.7494 11.2494 17.0704 11.2494 14.9994C11.2494 12.9283 12.9283 11.2494 14.9994 11.2494C17.0704 11.2494 18.7494 12.9283 18.7494 14.9994C18.7494 17.0704 17.0704 18.7494 14.9994 18.7494ZM14.9994 16.2494C15.6898 16.2494 16.2494 15.6898 16.2494 14.9994C16.2494 14.309 15.6898 13.7494 14.9994 13.7494C14.309 13.7494 13.7494 14.309 13.7494 14.9994C13.7494 15.6898 14.309 16.2494 14.9994 16.2494Z" fill="#C5D3F1"/>
</svg>
</svg>
