<svg fill="none" xmlns="http://www.w3.org/2000/svg" style="display:none;">
<symbol id="mainBigIcon4" width="30" height="30" viewBox="0 0 30 30" >
<path d="M8.60362 3.42578C11.4633 3.42578 13.7815 5.74398 13.7815 8.60362V13.7815H8.60362C5.74398 13.7815 3.42578 11.4633 3.42578 8.60362C3.42578 5.74398 5.74398 3.42578 8.60362 3.42578ZM11.3448 11.3448V8.60362C11.3448 7.0897 10.1176 5.86241 8.60362 5.86241C7.0897 5.86241 5.86241 7.0897 5.86241 8.60362C5.86241 10.1176 7.0897 11.3448 8.60362 11.3448H11.3448ZM8.60362 16.2181H13.7815V21.3959C13.7815 24.2556 11.4633 26.5738 8.60362 26.5738C5.74398 26.5738 3.42578 24.2556 3.42578 21.3959C3.42578 18.5363 5.74398 16.2181 8.60362 16.2181ZM8.60362 18.6547C7.0897 18.6547 5.86241 19.8821 5.86241 21.3959C5.86241 22.9098 7.0897 24.1372 8.60362 24.1372C10.1176 24.1372 11.3448 22.9098 11.3448 21.3959V18.6547H8.60362ZM21.3959 3.42578C24.2556 3.42578 26.5738 5.74398 26.5738 8.60362C26.5738 11.4633 24.2556 13.7815 21.3959 13.7815H16.2181V8.60362C16.2181 5.74398 18.5363 3.42578 21.3959 3.42578ZM21.3959 11.3448C22.9098 11.3448 24.1372 10.1176 24.1372 8.60362C24.1372 7.0897 22.9098 5.86241 21.3959 5.86241C19.8821 5.86241 18.6547 7.0897 18.6547 8.60362V11.3448H21.3959ZM16.2181 16.2181H21.3959C24.2556 16.2181 26.5738 18.5363 26.5738 21.3959C26.5738 24.2556 24.2556 26.5738 21.3959 26.5738C18.5363 26.5738 16.2181 24.2556 16.2181 21.3959V16.2181ZM18.6547 18.6547V21.3959C18.6547 22.9098 19.8821 24.1372 21.3959 24.1372C22.9098 24.1372 24.1372 22.9098 24.1372 21.3959C24.1372 19.8821 22.9098 18.6547 21.3959 18.6547H18.6547Z" fill="#C5D3F1"/>
</symbol>
</svg>
