<svg fill="none" xmlns="http://www.w3.org/2000/svg" style="display:none;">
<symbol id="mainBigIcon1" width="30" height="30" viewBox="0 0 30 30" >
<path fill-rule="evenodd" clip-rule="evenodd" d="M24.5671 9.39675L25.1113 9.51786C25.2655 9.55216 25.4275 9.57069 25.5964 9.57069C26.8191 9.57069 27.8102 8.57951 27.8102 7.35683C27.8102 6.13415 26.8191 5.14297 25.5964 5.14297C24.3737 5.14297 23.3825 6.13415 23.3825 7.35683C23.3825 8.0224 23.6735 8.61748 24.1425 9.02652L24.5671 9.39675ZM24.6458 11.6097L20.7778 19.1886C21.7264 19.9878 22.329 21.1846 22.329 22.522C22.329 24.9282 20.3784 26.8789 17.9722 26.8789C15.566 26.8789 13.6154 24.9282 13.6154 22.522C13.6154 21.2259 14.1813 20.062 15.0796 19.2639L11.5223 13.4249C11.1882 13.507 10.839 13.5505 10.4796 13.5505C10.1258 13.5505 9.78176 13.5083 9.45238 13.4287L7.79553 15.5733C8.37091 16.3117 8.71366 17.2403 8.71366 18.249C8.71366 20.6552 6.76304 22.6058 4.35683 22.6058C1.95062 22.6058 0 20.6552 0 18.249C0 15.8427 1.95062 13.8921 4.35683 13.8921C4.97841 13.8921 5.56958 14.0223 6.10458 14.2569L7.53523 12.405C6.66704 11.6086 6.12277 10.4647 6.12277 9.19366C6.12277 6.78745 8.07338 4.83683 10.4796 4.83683C12.8858 4.83683 14.8364 6.78745 14.8364 9.19366C14.8364 10.469 14.2885 11.6163 13.4152 12.4131L16.9876 18.2769C17.304 18.2038 17.6336 18.1652 17.9722 18.1652C18.2726 18.1652 18.5659 18.1956 18.8491 18.2535L22.734 10.6415C21.8182 9.84284 21.2395 8.66742 21.2395 7.35683C21.2395 4.95062 23.1902 3 25.5964 3C28.0026 3 29.9532 4.95062 29.9532 7.35683C29.9532 9.76304 28.0026 11.7137 25.5964 11.7137C25.2699 11.7137 24.9518 11.6777 24.6458 11.6097ZM18.9665 20.4647L18.4201 20.3531C18.2772 20.3239 18.1276 20.3082 17.9722 20.3082C17.7971 20.3082 17.6293 20.3281 17.47 20.3649L16.9253 20.4907L16.5029 20.8659C16.043 21.2746 15.7584 21.8637 15.7584 22.522C15.7584 23.7447 16.7495 24.7359 17.9722 24.7359C19.1949 24.7359 20.1861 23.7447 20.1861 22.522C20.1861 21.843 19.883 21.2369 19.397 20.8275L18.9665 20.4647ZM11.5537 11.2106L11.9708 10.83C12.4178 10.4222 12.6935 9.84163 12.6935 9.19366C12.6935 7.97098 11.7023 6.9798 10.4796 6.9798C9.25691 6.9798 8.26573 7.97098 8.26573 9.19366C8.26573 9.83949 8.53952 10.4182 8.98387 10.8259L9.40557 11.2127L9.95582 11.3457C10.1216 11.3858 10.2966 11.4075 10.4796 11.4075C10.6654 11.4075 10.8431 11.3851 11.0112 11.3438L11.5537 11.2106ZM5.75777 16.4447L5.24411 16.2195C4.97524 16.1016 4.67663 16.0351 4.35683 16.0351C3.13415 16.0351 2.14297 17.0263 2.14297 18.249C2.14297 19.4716 3.13415 20.4628 4.35683 20.4628C5.57951 20.4628 6.57069 19.4716 6.57069 18.249C6.57069 17.7342 6.39762 17.2658 6.10514 16.8905L5.75777 16.4447Z" fill="#C5D3F1"/>
</symbol>
</svg>
