<svg fill="none" xmlns="http://www.w3.org/2000/svg" style="display:none;">
<symbol id="mainBigIcon5" width="30" height="30" viewBox="0 0 30 30" >
<path d="M13.75 23.75V11.25H5V23.75H13.75ZM13.75 8.75V5C13.75 4.30965 14.3096 3.75 15 3.75H26.25C26.9404 3.75 27.5 4.30965 27.5 5V25C27.5 25.6904 26.9404 26.25 26.25 26.25H3.75C3.05965 26.25 2.5 25.6904 2.5 25V10C2.5 9.30965 3.05965 8.75 3.75 8.75H13.75ZM16.25 6.25V23.75H25V6.25H16.25ZM6.25 20H12.5V22.5H6.25V20ZM17.5 20H23.75V22.5H17.5V20ZM17.5 16.25H23.75V18.75H17.5V16.25ZM17.5 12.5H23.75V15H17.5V12.5ZM6.25 16.25H12.5V18.75H6.25V16.25Z" fill="#C5D3F1"/>
</symbol>
</svg>
