<svg fill="none" xmlns="http://www.w3.org/2000/svg" style="display:none;">
<symbol id="mainIcon08" width="24" height="24" viewBox="0 0 24 24"  >
<path d="M7.1888 3.29297C9.34041 3.29297 11.0846 5.03719 11.0846 7.1888V11.0846H7.1888C5.03719 11.0846 3.29297 9.34041 3.29297 7.1888C3.29297 5.03719 5.03719 3.29297 7.1888 3.29297ZM9.2513 9.2513V7.1888C9.2513 6.04972 8.32789 5.1263 7.1888 5.1263C6.04972 5.1263 5.1263 6.04972 5.1263 7.1888C5.1263 8.32789 6.04972 9.2513 7.1888 9.2513H9.2513ZM7.1888 12.918H11.0846V16.8138C11.0846 18.9654 9.34041 20.7096 7.1888 20.7096C5.03719 20.7096 3.29297 18.9654 3.29297 16.8138C3.29297 14.6622 5.03719 12.918 7.1888 12.918ZM7.1888 14.7513C6.04972 14.7513 5.1263 15.6748 5.1263 16.8138C5.1263 17.9529 6.04972 18.8763 7.1888 18.8763C8.32789 18.8763 9.2513 17.9529 9.2513 16.8138V14.7513H7.1888ZM16.8138 3.29297C18.9654 3.29297 20.7096 5.03719 20.7096 7.1888C20.7096 9.34041 18.9654 11.0846 16.8138 11.0846H12.918V7.1888C12.918 5.03719 14.6622 3.29297 16.8138 3.29297ZM16.8138 9.2513C17.9529 9.2513 18.8763 8.32789 18.8763 7.1888C18.8763 6.04972 17.9529 5.1263 16.8138 5.1263C15.6748 5.1263 14.7513 6.04972 14.7513 7.1888V9.2513H16.8138ZM12.918 12.918H16.8138C18.9654 12.918 20.7096 14.6622 20.7096 16.8138C20.7096 18.9654 18.9654 20.7096 16.8138 20.7096C14.6622 20.7096 12.918 18.9654 12.918 16.8138V12.918ZM14.7513 14.7513V16.8138C14.7513 17.9529 15.6748 18.8763 16.8138 18.8763C17.9529 18.8763 18.8763 17.9529 18.8763 16.8138C18.8763 15.6748 17.9529 14.7513 16.8138 14.7513H14.7513Z" fill="#C5D3F1"/>
</symbol>
</svg>
