<svg fill="none" xmlns="http://www.w3.org/2000/svg" style="display:none;">
<symbol id="mainIcon09" width="24" height="24" viewBox="0 0 24 24"  >
<path d="M12 12.9C13.4912 12.9 14.7 11.6912 14.7 10.2C14.7 8.70884 13.4912 7.5 12 7.5C10.5088 7.5 9.3 8.70884 9.3 10.2C9.3 11.6912 10.5088 12.9 12 12.9Z" fill="#C5D3F1"/>
<path fill-rule="evenodd" clip-rule="evenodd" d="M19.174 17.4354C17.5304 19.6013 14.9286 21 12 21C8.8934 21 6.15442 19.426 4.53706 17.032C3.69224 15.7815 3.15345 14.3073 3.02813 12.7168C3.01249 12.5184 3.00329 12.3181 3.00074 12.1163C3.00025 12.0776 3 12.0388 3 12C3 7.02944 7.02944 3 12 3C16.9706 3 21 7.02944 21 12C21 12.0097 21 12.0194 21 12.0291C20.9935 14.0599 20.3145 15.9324 19.174 17.4354ZM8.99936 12C7.47817 12.6401 6.24228 13.7519 5.51456 15.131C5.05669 14.1843 4.8 13.1221 4.8 12C4.8 8.02355 8.02355 4.8 12 4.8C15.9764 4.8 19.2 8.02355 19.2 12C19.2 13.1221 18.9433 14.1843 18.4854 15.131C17.7578 13.752 16.5221 12.6403 15.0011 12.0002C14.4964 13.0601 13.3427 13.801 12.0003 13.801C10.6578 13.801 9.5041 13.06 8.99936 12Z" fill="#C5D3F1"/>
</symbol>
</svg>
