<svg  fill="none" xmlns="http://www.w3.org/2000/svg" style="display:none;">
<symbol id="mainIcon01" viewBox="0 0 24 24" >
<path fill-rule="evenodd" clip-rule="evenodd" d="M18.4708 8.28613L18.8381 8.36728C18.9421 8.39027 19.0514 8.40268 19.1653 8.40268C19.9903 8.40268 20.6591 7.73854 20.6591 6.91929C20.6591 6.10003 19.9903 5.43589 19.1653 5.43589C18.3404 5.43589 17.6716 6.10003 17.6716 6.91929C17.6716 7.36525 17.8679 7.76398 18.1844 8.03806L18.4708 8.28613ZM18.524 9.76889L15.9141 14.8472C16.5541 15.3827 16.9608 16.1845 16.9608 17.0807C16.9608 18.693 15.6446 20 14.021 20C12.3975 20 11.0813 18.693 11.0813 17.0807C11.0813 16.2123 11.4632 15.4324 12.0693 14.8976L9.66903 10.9852C9.44362 11.0402 9.20799 11.0693 8.9655 11.0693C8.72675 11.0693 8.49465 11.0411 8.2724 10.9877L7.15446 12.4247C7.54269 12.9195 7.77396 13.5417 7.77396 14.2175C7.77396 15.8298 6.4578 17.1368 4.83424 17.1368C3.21069 17.1368 1.89453 15.8298 1.89453 14.2175C1.89453 12.6053 3.21069 11.2983 4.83424 11.2983C5.25364 11.2983 5.65253 11.3855 6.01352 11.5426L6.97883 10.3018C6.39303 9.76818 6.02579 9.0017 6.02579 8.15005C6.02579 6.53777 7.34194 5.23077 8.9655 5.23077C10.5891 5.23077 11.9052 6.53777 11.9052 8.15005C11.9052 9.00457 11.5355 9.77334 10.9462 10.3072L13.3567 14.2363C13.5702 14.1873 13.7926 14.1614 14.021 14.1614C14.2237 14.1614 14.4216 14.1818 14.6127 14.2206L17.234 9.12021C16.6161 8.58504 16.2256 7.79744 16.2256 6.91929C16.2256 5.30701 17.5418 4 19.1653 4C20.7889 4 22.1051 5.30701 22.1051 6.91929C22.1051 8.53156 20.7889 9.83857 19.1653 9.83857C18.9451 9.83857 18.7304 9.81451 18.524 9.76889ZM14.6919 15.7022L14.3232 15.6274C14.2268 15.6078 14.1259 15.5973 14.021 15.5973C13.9029 15.5973 13.7897 15.6107 13.6822 15.6353L13.3146 15.7196L13.0297 15.9711C12.7193 16.2449 12.5273 16.6396 12.5273 17.0807C12.5273 17.9 13.1961 18.5641 14.021 18.5641C14.846 18.5641 15.5148 17.9 15.5148 17.0807C15.5148 16.6258 15.3103 16.2196 14.9824 15.9453L14.6919 15.7022ZM9.69022 9.50148L9.97169 9.24647C10.2733 8.9732 10.4593 8.58422 10.4593 8.15005C10.4593 7.3308 9.79049 6.66666 8.9655 6.66666C8.14051 6.66666 7.47173 7.3308 7.47173 8.15005C7.47173 8.58279 7.65646 8.97058 7.95628 9.24371L8.24082 9.50292L8.61209 9.59203C8.72395 9.61887 8.84205 9.63345 8.9655 9.63345C9.09088 9.63345 9.21074 9.61842 9.32417 9.59075L9.69022 9.50148ZM5.77951 13.0086L5.43293 12.8577C5.25151 12.7787 5.05002 12.7341 4.83424 12.7341C4.00926 12.7341 3.34047 13.3983 3.34047 14.2175C3.34047 15.0368 4.00926 15.7009 4.83424 15.7009C5.65923 15.7009 6.32802 15.0368 6.32802 14.2175C6.32802 13.8726 6.21124 13.5588 6.0139 13.3073L5.77951 13.0086Z" fill="#C5D3F1"/>
</symbol>
</svg>
