<svg  fill="none" xmlns="http://www.w3.org/2000/svg" style="display:none;">
<symbol id="mainIcon06" width="24" height="24" viewBox="0 0 24 24"  >
<path fill-rule="evenodd" clip-rule="evenodd" d="M4.71429 14.7143V17.2857H7.28571V14.7143H4.71429ZM3.85714 13C3.38376 13 3 13.3838 3 13.8571V18.1429C3 18.6162 3.38376 19 3.85714 19H8.14286C8.61624 19 9 18.6162 9 18.1429V13.8571C9 13.3838 8.61624 13 8.14286 13H3.85714Z" fill="#C5D3F1"/>
<path fill-rule="evenodd" clip-rule="evenodd" d="M4.71429 6.71429V9.28571H7.28571V6.71429H4.71429ZM3.85714 5C3.38376 5 3 5.38376 3 5.85714V10.1429C3 10.6162 3.38376 11 3.85714 11H8.14286C8.61624 11 9 10.6162 9 10.1429V5.85714C9 5.38376 8.61624 5 8.14286 5H3.85714Z" fill="#C5D3F1"/>
<path fill-rule="evenodd" clip-rule="evenodd" d="M12.8182 14.7143V17.2857H19.1818V14.7143H12.8182ZM11.9091 13C11.407 13 11 13.3838 11 13.8571V18.1429C11 18.6162 11.407 19 11.9091 19H20.0909C20.593 19 21 18.6162 21 18.1429V13.8571C21 13.3838 20.593 13 20.0909 13H11.9091Z" fill="#C5D3F1"/>
<path fill-rule="evenodd" clip-rule="evenodd" d="M12.8182 6.71429V9.28571H19.1818V6.71429H12.8182ZM11.9091 5C11.407 5 11 5.38376 11 5.85714V10.1429C11 10.6162 11.407 11 11.9091 11H20.0909C20.593 11 21 10.6162 21 10.1429V5.85714C21 5.38376 20.593 5 20.0909 5H11.9091Z" fill="#C5D3F1"/>
</symbol>
</svg>
