<svg width="24" height="24" viewBox="0 0 24 24" fill="none" xmlns="http://www.w3.org/2000/svg">
<path d="M12.8681 3.374L22.4248 19.642C22.7019 20.1135 22.5375 20.7165 22.0577 20.9887C21.9052 21.0753 21.7321 21.1209 21.5561 21.1209H2.44265C1.8886 21.1209 1.43945 20.6795 1.43945 20.1349C1.43945 19.9618 1.48581 19.7918 1.57386 19.642L11.1306 3.374C11.4076 2.90242 12.0211 2.74086 12.5009 3.01311C12.6534 3.09965 12.7801 3.22411 12.8681 3.374ZM4.18023 19.149H19.8184L11.9993 5.83883L4.18023 19.149ZM10.9962 16.1912H13.0025V18.1631H10.9962V16.1912ZM10.9962 9.28961H13.0025V14.2193H10.9962V9.28961Z" fill="#C5D3F1"/>
</svg>
