<svg fill="none" xmlns="http://www.w3.org/2000/svg" style="display:none;">
<symbol id="mainIcon02" viewBox="0 0 24 24">
<rect width="10.2857" height="2.2069" rx="0.5" transform="matrix(1 0 0 -1 6.85742 20)" fill="#C5D3F1"/>
<mask id="path-2-inside-1_1_148320" fill="white">
<path fill-rule="evenodd" clip-rule="evenodd" d="M6.99927 15.5859C6.44698 15.5859 5.99927 15.1382 5.99927 14.5859V13.0117H4C3.44772 13.0117 3 12.564 3 12.0117V5.00022C3 4.44794 3.44772 4.00022 4 4.00022H20C20.5523 4.00022 21 4.44794 21 5.00022V12.0117C21 12.564 20.5523 13.0117 20 13.0117H17.9993V14.5859C17.9993 15.1382 17.5516 15.5859 16.9993 15.5859H6.99927Z"/>
</mask>
<path d="M5.99927 13.0117V11.0117H7.99927V13.0117H5.99927ZM17.9993 13.0117H15.9993V11.0117H17.9993V13.0117ZM7.99927 14.5859C7.99927 14.0337 7.55155 13.5859 6.99927 13.5859V17.5859C5.34241 17.5859 3.99927 16.2428 3.99927 14.5859H7.99927ZM7.99927 13.0117V14.5859H3.99927V13.0117H7.99927ZM4 11.0117H5.99927V15.0117H4V11.0117ZM5 12.0117C5 11.4594 4.55228 11.0117 4 11.0117V15.0117C2.34315 15.0117 1 13.6686 1 12.0117H5ZM5 5.00022V12.0117H1V5.00022H5ZM4 6.00022C4.55228 6.00022 5 5.55251 5 5.00022H1C1 3.34337 2.34315 2.00022 4 2.00022V6.00022ZM20 6.00022H4V2.00022H20V6.00022ZM19 5.00022C19 5.55251 19.4477 6.00022 20 6.00022V2.00022C21.6569 2.00022 23 3.34336 23 5.00022H19ZM19 12.0117V5.00022H23V12.0117H19ZM20 11.0117C19.4477 11.0117 19 11.4594 19 12.0117H23C23 13.6686 21.6569 15.0117 20 15.0117V11.0117ZM17.9993 11.0117H20V15.0117H17.9993V11.0117ZM15.9993 14.5859V13.0117H19.9993V14.5859H15.9993ZM16.9993 13.5859C16.447 13.5859 15.9993 14.0337 15.9993 14.5859H19.9993C19.9993 16.2428 18.6561 17.5859 16.9993 17.5859V13.5859ZM6.99927 13.5859H16.9993V17.5859H6.99927V13.5859Z" fill="#C5D3F1" mask="url(#path-2-inside-1_1_148320)"/>
</symbol>
</svg>
