<svg fill="none" xmlns="http://www.w3.org/2000/svg" style="display:none;">
<symbol id="mainIcon05" width="24" height="24" viewBox="0 0 24 24"  >
<path d="M12.8669 3.25017L22.3932 19.7502C22.6694 20.2285 22.5055 20.8401 22.0272 21.1162C21.8752 21.204 21.7027 21.2502 21.5272 21.2502H2.47461C1.92233 21.2502 1.47461 20.8025 1.47461 20.2502C1.47461 20.0746 1.52082 19.9022 1.60859 19.7502L11.1349 3.25017C11.411 2.77187 12.0226 2.608 12.5009 2.88414C12.6529 2.97191 12.7792 3.09815 12.8669 3.25017ZM4.20666 19.2502H19.7951L12.0009 5.75017L4.20666 19.2502ZM11.0009 16.2502H13.0009V18.2502H11.0009V16.2502ZM11.0009 9.25017H13.0009V14.2502H11.0009V9.25017Z" fill="#C5D3F1"/>
</symbol>
</svg>
