<svg fill="none" xmlns="http://www.w3.org/2000/svg" style="display:none;">
<symbol id="mainIcon07" width="24" height="24" viewBox="0 0 24 24"  >
<path fill-rule="evenodd" clip-rule="evenodd" d="M10 8C10 9.10457 9.1046 10 8.00004 10C6.89547 10 6.00004 9.10457 6.00004 8C6.00004 6.89543 6.89547 6 8.00004 6C9.1046 6 10 6.89543 10 8ZM8.00004 12C9.81204 12 11.3426 10.7951 11.8344 9.14288L11.8572 9.14314H19.0001C19.5524 9.14314 20.0001 8.69542 20.0001 8.14314V7.85742C20.0001 7.30514 19.5524 6.85742 19.0001 6.85742H11.8572L11.8345 6.85767C11.343 5.20512 9.81224 4 8.00004 4C5.7909 4 4.00004 5.79086 4.00004 8C4.00004 10.2091 5.7909 12 8.00004 12ZM14 16C14 17.1046 14.8955 18 16 18C17.1046 18 18 17.1046 18 16C18 14.8954 17.1046 14 16 14C14.8955 14 14 14.8954 14 16ZM12.1657 17.1429C12.6574 18.7951 14.188 20 16 20C18.2092 20 20 18.2091 20 16C20 13.7909 18.2092 12 16 12C14.1878 12 12.6571 13.2051 12.1655 14.8577C12.158 14.8575 12.1504 14.8574 12.1429 14.8574H5C4.44772 14.8574 4 15.3051 4 15.8574V16.1431C4 16.6954 4.44772 17.1431 5 17.1431H12.1429C12.1505 17.1431 12.1581 17.143 12.1657 17.1429Z" fill="#C5D3F1"/>
</symbol>
</svg>
