<svg  fill="none" xmlns="http://www.w3.org/2000/svg" style="display:none;">
<symbol id="mainIcon10" width="24" height="24" viewBox="0 0 24 24"  >
<path d="M11 19V9H4V19H11ZM11 7V4C11 3.44772 11.4477 3 12 3H21C21.5523 3 22 3.44772 22 4V20C22 20.5523 21.5523 21 21 21H3C2.44772 21 2 20.5523 2 20V8C2 7.44772 2.44772 7 3 7H11ZM13 5V19H20V5H13ZM5 16.5C5 16.2239 5.22386 16 5.5 16H9.5C9.77614 16 10 16.2239 10 16.5V17.5C10 17.7761 9.77614 18 9.5 18H5.5C5.22386 18 5 17.7761 5 17.5V16.5ZM14 16.5C14 16.2239 14.2239 16 14.5 16H18.5C18.7761 16 19 16.2239 19 16.5V17.5C19 17.7761 18.7761 18 18.5 18H14.5C14.2239 18 14 17.7761 14 17.5V16.5ZM14 13.5C14 13.2239 14.2239 13 14.5 13H18.5C18.7761 13 19 13.2239 19 13.5V14.5C19 14.7761 18.7761 15 18.5 15H14.5C14.2239 15 14 14.7761 14 14.5V13.5ZM14 10.5C14 10.2239 14.2239 10 14.5 10H18.5C18.7761 10 19 10.2239 19 10.5V11.5C19 11.7761 18.7761 12 18.5 12H14.5C14.2239 12 14 11.7761 14 11.5V10.5ZM5 13.5C5 13.2239 5.22386 13 5.5 13H9.5C9.77614 13 10 13.2239 10 13.5V14.5C10 14.7761 9.77614 15 9.5 15H5.5C5.22386 15 5 14.7761 5 14.5V13.5Z" fill="#C5D3F1"/>
</symbol>
</svg>
