<svg width="12" height="12" viewBox="0 0 12 12" fill="none" xmlns="http://www.w3.org/2000/svg">
<path d="M5.48476 6.51524H1.51524C1.3693 6.51524 1.2469 6.46622 1.14806 6.36817C1.04935 6.27012 1 6.14733 1 5.9998C1 5.8524 1.04935 5.72968 1.14806 5.63163C1.2469 5.53371 1.3693 5.48476 1.51524 5.48476H5.48476V1.51524C5.48476 1.3693 5.53431 1.2469 5.63342 1.14806C5.73252 1.04935 5.85524 1 6.00159 1C6.14806 1 6.27032 1.04935 6.36837 1.14806C6.46629 1.2469 6.51524 1.3693 6.51524 1.51524V5.48476H10.4848C10.6307 5.48476 10.7531 5.53431 10.8519 5.63342C10.9506 5.73252 11 5.85538 11 6.00198C11 6.15084 10.9506 6.27357 10.8519 6.37016C10.7531 6.46688 10.6307 6.51524 10.4848 6.51524H6.51524V10.4848C6.51524 10.633 6.46569 10.7559 6.36658 10.8535C6.26748 10.9512 6.14476 11 5.99841 11C5.85194 11 5.72968 10.9512 5.63163 10.8535C5.53371 10.7559 5.48476 10.633 5.48476 10.4848V6.51524Z" fill="#E8EAED"/>
</svg>
