<svg width="663" height="60" viewBox="0 0 663 60" fill="none" xmlns="http://www.w3.org/2000/svg">
<line y1="-0.5" x2="660" y2="-0.5" transform="matrix(-1 8.74228e-08 8.74228e-08 1 663 1)" stroke="#424242" stroke-dasharray="2 2"/>
<line y1="-0.5" x2="660" y2="-0.5" transform="matrix(-1 8.74228e-08 8.74228e-08 1 663 15)" stroke="#424242" stroke-dasharray="2 2"/>
<line y1="-0.5" x2="660" y2="-0.5" transform="matrix(-1 8.74228e-08 8.74228e-08 1 663 29)" stroke="#424242" stroke-dasharray="2 2"/>
<line y1="-0.5" x2="660" y2="-0.5" transform="matrix(-1 8.74228e-08 8.74228e-08 1 663 43)" stroke="#424242" stroke-dasharray="2 2"/>
<line y1="-0.5" x2="660" y2="-0.5" transform="matrix(-1 8.74228e-08 8.74228e-08 1 663 57)" stroke="#424242" stroke-dasharray="2 2"/>
<line y1="-0.5" x2="57" y2="-0.5" transform="matrix(0 1 1 0 663 0)" stroke="#424242" stroke-dasharray="2 2"/>
<line y1="-0.5" x2="57" y2="-0.5" transform="matrix(0 1 1 0 643 0)" stroke="#424242" stroke-dasharray="2 2"/>
<line y1="-0.5" x2="57" y2="-0.5" transform="matrix(0 1 1 0 623 0)" stroke="#424242" stroke-dasharray="2 2"/>
<line y1="-0.5" x2="57" y2="-0.5" transform="matrix(0 1 1 0 603 0)" stroke="#424242" stroke-dasharray="2 2"/>
<line y1="-0.5" x2="57" y2="-0.5" transform="matrix(0 1 1 0 583 0)" stroke="#424242" stroke-dasharray="2 2"/>
<line y1="-0.5" x2="57" y2="-0.5" transform="matrix(0 1 1 0 563 0)" stroke="#424242" stroke-dasharray="2 2"/>
<line y1="-0.5" x2="57" y2="-0.5" transform="matrix(0 1 1 0 543 0)" stroke="#424242" stroke-dasharray="2 2"/>
<line y1="-0.5" x2="57" y2="-0.5" transform="matrix(0 1 1 0 523 0)" stroke="#424242" stroke-dasharray="2 2"/>
<line y1="-0.5" x2="57" y2="-0.5" transform="matrix(0 1 1 0 503 0)" stroke="#424242" stroke-dasharray="2 2"/>
<line y1="-0.5" x2="57" y2="-0.5" transform="matrix(0 1 1 0 483 0)" stroke="#424242" stroke-dasharray="2 2"/>
<line y1="-0.5" x2="57" y2="-0.5" transform="matrix(0 1 1 0 463 0)" stroke="#424242" stroke-dasharray="2 2"/>
<line y1="-0.5" x2="57" y2="-0.5" transform="matrix(0 1 1 0 443 0)" stroke="#424242" stroke-dasharray="2 2"/>
<line y1="-0.5" x2="57" y2="-0.5" transform="matrix(0 1 1 0 423 0)" stroke="#424242" stroke-dasharray="2 2"/>
<line y1="-0.5" x2="57" y2="-0.5" transform="matrix(0 1 1 0 403 0)" stroke="#424242" stroke-dasharray="2 2"/>
<line y1="-0.5" x2="57" y2="-0.5" transform="matrix(0 1 1 0 383 0)" stroke="#424242" stroke-dasharray="2 2"/>
<line y1="-0.5" x2="57" y2="-0.5" transform="matrix(0 1 1 0 363 0)" stroke="#424242" stroke-dasharray="2 2"/>
<line y1="-0.5" x2="57" y2="-0.5" transform="matrix(0 1 1 0 343 0)" stroke="#424242" stroke-dasharray="2 2"/>
<line y1="-0.5" x2="57" y2="-0.5" transform="matrix(0 1 1 0 323 0)" stroke="#424242" stroke-dasharray="2 2"/>
<line y1="-0.5" x2="57" y2="-0.5" transform="matrix(0 1 1 0 303 0)" stroke="#424242" stroke-dasharray="2 2"/>
<line y1="-0.5" x2="57" y2="-0.5" transform="matrix(0 1 1 0 283 0)" stroke="#424242" stroke-dasharray="2 2"/>
<line y1="-0.5" x2="57" y2="-0.5" transform="matrix(0 1 1 0 263 0)" stroke="#424242" stroke-dasharray="2 2"/>
<line y1="-0.5" x2="57" y2="-0.5" transform="matrix(0 1 1 0 243 0)" stroke="#424242" stroke-dasharray="2 2"/>
<line y1="-0.5" x2="57" y2="-0.5" transform="matrix(0 1 1 0 223 0)" stroke="#424242" stroke-dasharray="2 2"/>
<line y1="-0.5" x2="57" y2="-0.5" transform="matrix(0 1 1 0 203 0)" stroke="#424242" stroke-dasharray="2 2"/>
<line y1="-0.5" x2="57" y2="-0.5" transform="matrix(0 1 1 0 183 0)" stroke="#424242" stroke-dasharray="2 2"/>
<line y1="-0.5" x2="57" y2="-0.5" transform="matrix(0 1 1 0 163 0)" stroke="#424242" stroke-dasharray="2 2"/>
<line y1="-0.5" x2="57" y2="-0.5" transform="matrix(0 1 1 0 143 0)" stroke="#424242" stroke-dasharray="2 2"/>
<line y1="-0.5" x2="57" y2="-0.5" transform="matrix(0 1 1 0 123 0)" stroke="#424242" stroke-dasharray="2 2"/>
<line y1="-0.5" x2="57" y2="-0.5" transform="matrix(0 1 1 0 103 0)" stroke="#424242" stroke-dasharray="2 2"/>
<line y1="-0.5" x2="57" y2="-0.5" transform="matrix(0 1 1 0 83 0)" stroke="#424242" stroke-dasharray="2 2"/>
<line y1="-0.5" x2="57" y2="-0.5" transform="matrix(0 1 1 0 63 0)" stroke="#424242" stroke-dasharray="2 2"/>
<line y1="-0.5" x2="57" y2="-0.5" transform="matrix(0 1 1 0 43 0)" stroke="#424242" stroke-dasharray="2 2"/>
<line y1="-0.5" x2="57" y2="-0.5" transform="matrix(0 1 1 0 23 0)" stroke="#424242" stroke-dasharray="2 2"/>
<line y1="-0.5" x2="57" y2="-0.5" transform="matrix(0 1 1 0 3 0)" stroke="#424242" stroke-dasharray="2 2"/>
<g filter="url(#filter0_d_1_34921)">
<path d="M630 55.0002C628.009 54.3011 610.089 45.9107 599.139 48.0083C588.188 50.1059 584.703 51.9702 578.232 45.6774C571.762 39.3847 570.766 41.0161 563.797 41.2492C556.829 41.4823 551.851 41.2493 548.367 38.6856C544.882 36.1219 541.398 35.1897 533.434 36.1219C525.469 37.0542 524.972 37.5202 522.981 34.2573C520.99 30.9944 516.012 26.7992 510.039 27.7315C504.066 28.6637 502.263 26.7985 500.581 25.6338C497.5 23.5002 493.613 24.2354 491.124 26.5661C488.635 28.8967 484.155 29.5963 477.684 28.6639C471.213 27.7315 471.711 31.2276 467.231 31.4607C462.751 31.6937 462 31.0002 458.271 29.5961C453.21 27.6902 448.814 21.6715 445.827 26.5661C442.841 31.4607 427.5 44.0002 421.934 37.2873C417.185 31.5593 416.127 21.5166 414.966 17.9429C414.497 16.5002 411.375 9.00054 408 13.5002C402 21.5002 396 16.0002 393.562 12.1163C392.233 10.0002 387 6.00024 383.109 12.8155C380.519 17.3514 374.647 30.7617 369.171 28.6639C363.696 26.5661 363.519 19.3213 362.7 18.8754C356.5 15.5 358.975 30.7617 353.5 29.5961C348.025 28.4306 331.473 14.5 325.5 14.5C320.721 14.5 311 36.1219 303.5 36.1217C244.5 44 233.5 14.5 213 14.5C177.5 17 191.5 50.9998 3.5 56" stroke="#2A85FE"/>
</g>
<defs>
<filter id="filter0_d_1_34921" x="0.486328" y="5.51074" width="632.68" height="53.9893" filterUnits="userSpaceOnUse" color-interpolation-filters="sRGB">
<feFlood flood-opacity="0" result="BackgroundImageFix"/>
<feColorMatrix in="SourceAlpha" type="matrix" values="0 0 0 0 0 0 0 0 0 0 0 0 0 0 0 0 0 0 127 0" result="hardAlpha"/>
<feOffset/>
<feGaussianBlur stdDeviation="1.5"/>
<feComposite in2="hardAlpha" operator="out"/>
<feColorMatrix type="matrix" values="0 0 0 0 0.0416437 0 0 0 0 0.445853 0 0 0 0 0.983317 0 0 0 1 0"/>
<feBlend mode="normal" in2="BackgroundImageFix" result="effect1_dropShadow_1_34921"/>
<feBlend mode="normal" in="SourceGraphic" in2="effect1_dropShadow_1_34921" result="shape"/>
</filter>
</defs>
</svg>
