<svg width="661" height="57" viewBox="0 0 661 57" fill="none" xmlns="http://www.w3.org/2000/svg">
<line x1="0.5" x2="0.5" y2="57" stroke="#424242" stroke-dasharray="2 2"/>
<line x1="20.5" x2="20.5" y2="57" stroke="#424242" stroke-dasharray="2 2"/>
<line x1="40.5" x2="40.5" y2="57" stroke="#424242" stroke-dasharray="2 2"/>
<line x1="60.5" x2="60.5" y2="57" stroke="#424242" stroke-dasharray="2 2"/>
<line x1="80.5" x2="80.5" y2="57" stroke="#424242" stroke-dasharray="2 2"/>
<line x1="100.5" x2="100.5" y2="57" stroke="#424242" stroke-dasharray="2 2"/>
<line x1="120.5" x2="120.5" y2="57" stroke="#424242" stroke-dasharray="2 2"/>
<line x1="140.5" x2="140.5" y2="57" stroke="#424242" stroke-dasharray="2 2"/>
<line x1="160.5" x2="160.5" y2="57" stroke="#424242" stroke-dasharray="2 2"/>
<line x1="180.5" x2="180.5" y2="57" stroke="#424242" stroke-dasharray="2 2"/>
<line x1="200.5" x2="200.5" y2="57" stroke="#424242" stroke-dasharray="2 2"/>
<line x1="220.5" x2="220.5" y2="57" stroke="#424242" stroke-dasharray="2 2"/>
<line x1="240.5" x2="240.5" y2="57" stroke="#424242" stroke-dasharray="2 2"/>
<line x1="260.5" x2="260.5" y2="57" stroke="#424242" stroke-dasharray="2 2"/>
<line x1="280.5" x2="280.5" y2="57" stroke="#424242" stroke-dasharray="2 2"/>
<line x1="300.5" x2="300.5" y2="57" stroke="#424242" stroke-dasharray="2 2"/>
<line x1="320.5" x2="320.5" y2="57" stroke="#424242" stroke-dasharray="2 2"/>
<line x1="340.5" x2="340.5" y2="57" stroke="#424242" stroke-dasharray="2 2"/>
<line x1="360.5" x2="360.5" y2="57" stroke="#424242" stroke-dasharray="2 2"/>
<line x1="380.5" x2="380.5" y2="57" stroke="#424242" stroke-dasharray="2 2"/>
<line x1="400.5" x2="400.5" y2="57" stroke="#424242" stroke-dasharray="2 2"/>
<line x1="420.5" x2="420.5" y2="57" stroke="#424242" stroke-dasharray="2 2"/>
<line x1="440.5" x2="440.5" y2="57" stroke="#424242" stroke-dasharray="2 2"/>
<line x1="460.5" x2="460.5" y2="57" stroke="#424242" stroke-dasharray="2 2"/>
<line x1="480.5" x2="480.5" y2="57" stroke="#424242" stroke-dasharray="2 2"/>
<line x1="500.5" x2="500.5" y2="57" stroke="#424242" stroke-dasharray="2 2"/>
<line x1="520.5" x2="520.5" y2="57" stroke="#424242" stroke-dasharray="2 2"/>
<line x1="540.5" x2="540.5" y2="57" stroke="#424242" stroke-dasharray="2 2"/>
<line x1="560.5" x2="560.5" y2="57" stroke="#424242" stroke-dasharray="2 2"/>
<line x1="580.5" x2="580.5" y2="57" stroke="#424242" stroke-dasharray="2 2"/>
<line x1="600.5" x2="600.5" y2="57" stroke="#424242" stroke-dasharray="2 2"/>
<line x1="620.5" x2="620.5" y2="57" stroke="#424242" stroke-dasharray="2 2"/>
<line x1="640.5" x2="640.5" y2="57" stroke="#424242" stroke-dasharray="2 2"/>
<line x1="660.5" x2="660.5" y2="57" stroke="#424242" stroke-dasharray="2 2"/>
</svg>
