<svg width="16" height="16" viewBox="0 0 16 16" fill="none" xmlns="http://www.w3.org/2000/svg">
<path fill-rule="evenodd" clip-rule="evenodd" d="M6.73034 3.56704L6.66962 3.58501C6.33149 3.68506 6.00979 3.82286 5.7095 3.99348L5.65583 4.02397L5.02488 3.39921C4.80384 3.18034 4.44546 3.18034 4.22442 3.39921L3.25243 4.36166C3.03138 4.58053 3.03138 4.9354 3.25243 5.15427L3.92944 5.82463L3.90291 5.87641C3.76771 6.14034 3.65789 6.41916 3.57662 6.70971L3.56004 6.76901L3.49789 6.7684C3.49599 6.76838 3.49409 6.76837 3.49218 6.76837H2.52187C2.20927 6.76837 1.95586 7.0193 1.95586 7.32883V8.68994C1.95586 8.99947 2.20927 9.2504 2.52187 9.2504L3.4919 9.2504L3.49218 9.2504L3.49616 9.25038C3.49614 9.25038 3.49619 9.25038 3.49616 9.25038C3.49826 9.25037 3.50043 9.25034 3.50252 9.25031L3.5649 9.2492L3.5818 9.30866C3.66437 9.59907 3.7755 9.87764 3.912 10.1412L3.93888 10.1931L3.25243 10.8728C3.03139 11.0917 3.03139 11.4466 3.25243 11.6654L4.22442 12.6279C4.44546 12.8468 4.80384 12.8468 5.02488 12.6279L5.66653 11.9926L5.7202 12.0231C6.02313 12.1954 6.34175 12.3305 6.66931 12.4284L6.72854 12.4461L6.72677 12.5073C6.72661 12.5128 6.72654 12.5182 6.72654 12.5237V13.4845C6.72654 13.794 6.97995 14.0449 7.29255 14.0449H8.66715C8.97975 14.0449 9.23316 13.794 9.23316 13.4845L9.23316 12.5239L9.23315 12.5204L9.2331 12.5156L9.23223 12.4548L9.29114 12.4377C9.62975 12.3391 9.95908 12.2009 10.2717 12.0231L10.3254 11.9925L10.967 12.6279C11.188 12.8467 11.5464 12.8467 11.7674 12.6279L12.7394 11.6654C12.9605 11.4465 12.9605 11.0917 12.7394 10.8728L12.0503 10.1904L12.0767 10.1387C12.2133 9.87114 12.3213 9.59294 12.4008 9.30853L12.418 9.24707L12.4823 9.24989C12.4908 9.25026 12.4993 9.25045 12.5078 9.25045H13.4781C13.7907 9.25045 14.0441 8.99953 14.0441 8.68999L14.0441 7.32888C14.0441 7.01935 13.7907 6.76843 13.4781 6.76843H12.5078C12.4986 6.76843 12.4894 6.76864 12.4803 6.76907L12.4159 6.77212L12.3986 6.71059C12.3193 6.42891 12.212 6.15337 12.0767 5.88828L12.0502 5.83654L12.7394 5.1541C12.9605 4.93523 12.9605 4.58037 12.7394 4.3615L11.7675 3.39905C11.5464 3.18017 11.188 3.18017 10.967 3.39905L10.3252 4.0345L10.2716 4.00397C10.1844 3.95439 10.0959 3.90788 10.0063 3.86445L10.0059 3.86427C9.77744 3.75216 9.53818 3.65843 9.29008 3.58501L9.22935 3.56704L9.23247 3.50436C9.23293 3.49507 9.23316 3.48572 9.23316 3.47631V2.51552C9.23316 2.20599 8.97975 1.95507 8.66715 1.95507H7.29255C6.97995 1.95507 6.72654 2.20599 6.72654 2.51552V3.47631C6.72654 3.48572 6.72677 3.49507 6.72723 3.50436L6.73034 3.56704ZM9.31401 12.5202L9.31402 12.5237V13.4845C9.31402 13.8382 9.02441 14.125 8.66715 14.125H7.29255C6.93529 14.125 6.64568 13.8382 6.64568 13.4845V12.5237C6.64568 12.5175 6.64577 12.5112 6.64595 12.5051C6.31257 12.4054 5.98827 12.2679 5.67993 12.0925L5.08206 12.6845C4.82944 12.9347 4.41987 12.9347 4.16725 12.6845L3.19526 11.7221C2.94264 11.4719 2.94264 11.0664 3.19526 10.8162L3.84005 10.1778C3.70112 9.90949 3.58802 9.62595 3.50397 9.33036C3.50156 9.3304 3.49914 9.33043 3.49672 9.33045L3.49218 9.33046H2.52187C2.16461 9.33046 1.875 9.04369 1.875 8.68994V7.32883C1.875 6.97508 2.16461 6.6883 2.52187 6.6883H3.49218C3.49435 6.6883 3.49653 6.68832 3.4987 6.68834C3.58142 6.3926 3.6932 6.10881 3.8308 5.84019L3.19525 5.21088C2.94263 4.96074 2.94263 4.55519 3.19525 4.30505L4.16724 3.3426C4.41986 3.09246 4.82944 3.09246 5.08205 3.3426L5.66926 3.92403C5.97487 3.75039 6.3023 3.61014 6.64647 3.5083C6.64594 3.4977 6.64568 3.48703 6.64568 3.47631V2.51552C6.64568 2.16177 6.93529 1.875 7.29255 1.875H8.66715C9.02441 1.875 9.31402 2.16177 9.31402 2.51552V3.47631C9.31402 3.48703 9.31375 3.4977 9.31323 3.5083C9.56577 3.58302 9.80929 3.67843 10.0418 3.79254C10.133 3.83674 10.2231 3.88407 10.3118 3.93454L10.9098 3.34243C11.1624 3.09229 11.572 3.09229 11.8246 3.34243L12.7966 4.30488C13.0492 4.55502 13.0492 4.96058 12.7966 5.21072L12.1488 5.85216C12.2866 6.12198 12.3958 6.40243 12.4765 6.6891C12.4868 6.68861 12.4973 6.68836 12.5078 6.68836H13.4781C13.8354 6.68836 14.125 6.97513 14.125 7.32888L14.125 8.68999C14.125 9.04375 13.8354 9.33052 13.4781 9.33052H12.5078C12.4981 9.33052 12.4884 9.3303 12.4787 9.32988C12.3979 9.61933 12.2879 9.90249 12.1489 10.1748L12.7966 10.8162C13.0492 11.0663 13.0492 11.4719 12.7966 11.722L11.8246 12.6845C11.572 12.9346 11.1624 12.9346 10.9098 12.6845L10.312 12.0925C9.99377 12.2735 9.65858 12.4141 9.31395 12.5145C9.31398 12.5164 9.314 12.5183 9.31401 12.5202Z" fill="white"/>
<path d="M3.49616 9.25038L3.49218 9.2504L3.4919 9.2504L2.52187 9.2504C2.20927 9.2504 1.95586 8.99947 1.95586 8.68994V7.32883C1.95586 7.0193 2.20927 6.76837 2.52187 6.76837H3.49218C3.49409 6.76837 3.49599 6.76838 3.49789 6.7684L3.56004 6.76901L3.57662 6.70971C3.65789 6.41916 3.76771 6.14034 3.90291 5.87641L3.92944 5.82463L3.25243 5.15427C3.03138 4.9354 3.03138 4.58053 3.25243 4.36166L4.22442 3.39921C4.44546 3.18034 4.80384 3.18034 5.02488 3.39921L5.65583 4.02397L5.7095 3.99348C6.00979 3.82286 6.33149 3.68506 6.66962 3.58501L6.73034 3.56704L6.72723 3.50436C6.72677 3.49507 6.72654 3.48572 6.72654 3.47631V2.51552C6.72654 2.20599 6.97995 1.95507 7.29255 1.95507H8.66715C8.97975 1.95507 9.23316 2.20599 9.23316 2.51552V3.47631C9.23316 3.48572 9.23293 3.49507 9.23247 3.50436L9.22935 3.56704L9.29008 3.58501C9.53818 3.65843 9.77744 3.75216 10.0059 3.86427L10.0063 3.86445C10.0959 3.90788 10.1844 3.95439 10.2716 4.00397L10.3252 4.0345L10.967 3.39905C11.188 3.18017 11.5464 3.18017 11.7675 3.39905L12.7394 4.3615C12.9605 4.58037 12.9605 4.93523 12.7394 5.1541L12.0502 5.83654L12.0767 5.88828C12.212 6.15337 12.3193 6.42891 12.3986 6.71059L12.4159 6.77212L12.4803 6.76907C12.4894 6.76864 12.4986 6.76843 12.5078 6.76843H13.4781C13.7907 6.76843 14.0441 7.01935 14.0441 7.32888L14.0441 8.68999C14.0441 8.99953 13.7907 9.25045 13.4781 9.25045H12.5078C12.4993 9.25045 12.4908 9.25026 12.4823 9.24989L12.418 9.24707L12.4008 9.30853C12.3213 9.59294 12.2133 9.87114 12.0767 10.1387L12.0503 10.1904L12.7394 10.8728C12.9605 11.0917 12.9605 11.4465 12.7394 11.6654L11.7674 12.6279C11.5464 12.8467 11.188 12.8467 10.967 12.6279L10.3254 11.9925L10.2717 12.0231C9.95908 12.2009 9.62975 12.3391 9.29114 12.4377L9.23223 12.4548L9.2331 12.5156L9.23315 12.5204L9.23316 12.5239L9.23316 13.4845C9.23316 13.794 8.97975 14.0449 8.66715 14.0449H7.29255C6.97995 14.0449 6.72654 13.794 6.72654 13.4845V12.5237C6.72654 12.5182 6.72661 12.5128 6.72677 12.5073L6.72854 12.4461L6.66931 12.4284C6.34175 12.3305 6.02313 12.1954 5.7202 12.0231L5.66653 11.9926L5.02488 12.6279C4.80384 12.8468 4.44546 12.8468 4.22442 12.6279L3.25243 11.6654C3.03139 11.4466 3.03139 11.0917 3.25243 10.8728L3.93888 10.1931L3.912 10.1412C3.7755 9.87764 3.66437 9.59907 3.5818 9.30866L3.5649 9.2492L3.50252 9.2503C3.50043 9.25034 3.49826 9.25037 3.49616 9.25038ZM3.49616 9.25038C3.49614 9.25038 3.49619 9.25038 3.49616 9.25038ZM9.31402 12.5237L9.31401 12.5202C9.314 12.5183 9.31398 12.5164 9.31396 12.5145C9.65858 12.4141 9.99377 12.2735 10.312 12.0925L10.9098 12.6845C11.1624 12.9346 11.572 12.9346 11.8246 12.6845L12.7966 11.722C13.0492 11.4719 13.0492 11.0663 12.7966 10.8162L12.1489 10.1748C12.2879 9.90249 12.3979 9.61933 12.4787 9.32988C12.4884 9.3303 12.4981 9.33052 12.5078 9.33052H13.4781C13.8354 9.33052 14.125 9.04375 14.125 8.68999L14.125 7.32888C14.125 6.97513 13.8354 6.68836 13.4781 6.68836H12.5078C12.4973 6.68836 12.4869 6.68861 12.4765 6.6891C12.3958 6.40243 12.2866 6.12198 12.1488 5.85216L12.7966 5.21072C13.0492 4.96058 13.0492 4.55502 12.7966 4.30488L11.8246 3.34243C11.572 3.09229 11.1624 3.09229 10.9098 3.34243L10.3118 3.93454C10.2231 3.88407 10.133 3.83674 10.0418 3.79254C9.80929 3.67843 9.56577 3.58302 9.31323 3.5083C9.31375 3.4977 9.31402 3.48703 9.31402 3.47631V2.51552C9.31402 2.16177 9.02441 1.875 8.66715 1.875H7.29255C6.93529 1.875 6.64568 2.16177 6.64568 2.51552V3.47631C6.64568 3.48703 6.64594 3.4977 6.64647 3.5083C6.3023 3.61014 5.97487 3.75039 5.66926 3.92403L5.08205 3.3426C4.82944 3.09246 4.41986 3.09246 4.16724 3.3426L3.19525 4.30505C2.94263 4.55519 2.94263 4.96074 3.19525 5.21088L3.8308 5.84019C3.6932 6.10881 3.58142 6.3926 3.4987 6.68834C3.49653 6.68832 3.49435 6.6883 3.49218 6.6883H2.52187C2.16461 6.6883 1.875 6.97508 1.875 7.32883V8.68994C1.875 9.04369 2.16461 9.33046 2.52187 9.33046H3.49218L3.49672 9.33045C3.49914 9.33043 3.50156 9.3304 3.50397 9.33036C3.58802 9.62595 3.70112 9.90949 3.84005 10.1778L3.19526 10.8162C2.94264 11.0664 2.94264 11.4719 3.19526 11.7221L4.16725 12.6845C4.41987 12.9347 4.82944 12.9347 5.08206 12.6845L5.67993 12.0925C5.98827 12.2679 6.31257 12.4054 6.64594 12.5051C6.64577 12.5112 6.64568 12.5175 6.64568 12.5237V13.4845C6.64568 13.8382 6.93529 14.125 7.29255 14.125H8.66715C9.02441 14.125 9.31402 13.8382 9.31402 13.4845V12.5237Z" stroke="white"/>
<circle cx="8" cy="8" r="2.29688" stroke="white"/>
</svg>
