<svg width="15" height="15" viewBox="0 0 15 15" fill="none" xmlns="http://www.w3.org/2000/svg">
<path d="M11.2694 10.3855L13.9461 13.0622L13.0622 13.9461L10.3855 11.2694C9.42306 12.0394 8.2025 12.5 6.875 12.5C3.77 12.5 1.25 9.98 1.25 6.875C1.25 3.77 3.77 1.25 6.875 1.25C9.98 1.25 12.5 3.77 12.5 6.875C12.5 8.2025 12.0394 9.42306 11.2694 10.3855ZM10.0154 9.92175C10.7797 9.13412 11.25 8.05975 11.25 6.875C11.25 4.45781 9.29219 2.5 6.875 2.5C4.45781 2.5 2.5 4.45781 2.5 6.875C2.5 9.29219 4.45781 11.25 6.875 11.25C8.05975 11.25 9.13412 10.7797 9.92175 10.0154L10.0154 9.92175Z" fill="white"/>
</svg>
