<svg width="17" height="17" viewBox="0 0 17 17" fill="none" xmlns="http://www.w3.org/2000/svg">
<path d="M5.19727 13.1921V3.80664H8.64083C9.36274 3.80664 10.0155 4.03142 10.599 4.48097C11.1824 4.93041 11.4742 5.53568 11.4742 6.29679C11.4742 6.82615 11.3463 7.2577 11.0906 7.59144C10.835 7.92519 10.5596 8.16744 10.2645 8.31819C10.6278 8.44345 10.9747 8.69113 11.3052 9.06123C11.6358 9.43134 11.8011 9.92965 11.8011 10.5562C11.8011 11.4615 11.4673 12.1272 10.7998 12.5531C10.1323 12.9791 9.4599 13.1921 8.7825 13.1921H5.19727ZM6.72018 11.7809H8.7253C9.28287 11.7809 9.677 11.626 9.90768 11.3164C10.1384 11.0067 10.2537 10.7098 10.2537 10.4255C10.2537 10.1412 10.1384 9.84424 9.90768 9.53458C9.677 9.22492 9.27195 9.07009 8.69254 9.07009H6.72018V11.7809ZM6.72018 7.70247H8.55778C8.98821 7.70247 9.32945 7.5794 9.58149 7.33326C9.83343 7.08723 9.95939 6.79256 9.95939 6.44925C9.95939 6.08423 9.82617 5.7859 9.55971 5.55428C9.29314 5.32277 8.96643 5.20702 8.57956 5.20702H6.72018V7.70247Z" fill="#404040"/>
</svg>
