<svg width="17" height="17" viewBox="0 0 17 17" fill="none" xmlns="http://www.w3.org/2000/svg">
<path d="M8.60625 13.949C7.77266 13.949 7.03481 13.7129 6.39271 13.2407C5.75072 12.7684 5.2808 12.1218 4.98295 11.3009L6.11894 10.812C6.31597 11.365 6.6261 11.82 7.04933 12.1769C7.47244 12.5338 7.99868 12.7122 8.62803 12.7122C9.17841 12.7122 9.68604 12.5738 10.1509 12.2968C10.616 12.0197 10.8485 11.5806 10.8485 10.9795C10.8485 10.7124 10.806 10.4813 10.721 10.2862C10.6361 10.0909 10.516 9.90883 10.3608 9.7399H11.8129C11.8991 9.89608 11.966 10.0768 12.0137 10.2819C12.0614 10.4872 12.0852 10.7198 12.0852 10.9795C12.0852 11.9266 11.7404 12.6583 11.0507 13.1746C10.3609 13.6909 9.54609 13.949 8.60625 13.949ZM1.59375 8.32323V7.26073H15.4062V8.32323H1.59375ZM8.53542 2.97266C9.24198 2.97266 9.85451 3.1361 10.373 3.463C10.8915 3.7899 11.3101 4.29205 11.6289 4.96945L10.4996 5.47626C10.3571 5.14299 10.1276 4.84856 9.81112 4.59297C9.49462 4.33726 9.07664 4.20941 8.5572 4.20941C7.95063 4.20941 7.46524 4.36518 7.10104 4.67673C6.73684 4.98816 6.562 5.37727 6.57652 5.84406H5.33977C5.31344 5.07493 5.5943 4.40408 6.18233 3.83151C6.77025 3.25894 7.55461 2.97266 8.53542 2.97266Z" fill="#404040"/>
</svg>
