<svg width="17" height="17" viewBox="0 0 17 17" fill="none" xmlns="http://www.w3.org/2000/svg">
<path d="M3.78711 14.2553V13.1928H13.2133V14.2553H3.78711ZM8.50018 11.7079C7.39861 11.7079 6.53887 11.3735 5.92096 10.7048C5.30294 10.036 4.99393 9.13988 4.99393 8.01646V2.41797H6.307V8.0818C6.307 8.79746 6.49725 9.37097 6.87774 9.80234C7.25824 10.2337 7.79905 10.4494 8.50018 10.4494C9.20131 10.4494 9.74213 10.2337 10.1226 9.80234C10.5031 9.37097 10.6934 8.79746 10.6934 8.0818V2.41797H12.0064V8.01646C12.0064 9.13988 11.6974 10.036 11.0794 10.7048C10.4615 11.3735 9.60176 11.7079 8.50018 11.7079Z" fill="#404040"/>
</svg>
